<svg width="29" height="29" viewBox="0 0 29 29" fill="none" xmlns="http://www.w3.org/2000/svg">
<g clip-path="url(#clip0_206_8122)">
<path d="M4.76423 6.91634H10.9865V8.47189H4.76423V24.8052H10.9865V26.3608H3.20867V8.47189C3.20867 8.05933 3.37256 7.66367 3.66428 7.37195C3.95601 7.08022 4.35167 6.91634 4.76423 6.91634Z" fill="white"/>
<path d="M13.4132 3.02744H24.1154C24.5527 3.02744 24.9721 3.20116 25.2813 3.51038C25.5906 3.81961 25.7643 4.23901 25.7643 4.67632V26.3608H11.7643V4.67632C11.7643 4.23901 11.938 3.81961 12.2472 3.51038C12.5565 3.20116 12.9759 3.02744 13.4132 3.02744ZM13.3198 24.8052H15.6532V22.4719H21.8754V24.8052H24.2087V4.67632C24.2087 4.66407 24.2063 4.65193 24.2016 4.64061C24.1969 4.62928 24.1901 4.61899 24.1814 4.61033C24.1727 4.60166 24.1624 4.59479 24.1511 4.5901C24.1398 4.5854 24.1277 4.58299 24.1154 4.58299H13.4132C13.4009 4.58299 13.3888 4.5854 13.3775 4.5901C13.3661 4.59479 13.3558 4.60166 13.3472 4.61033C13.3385 4.61899 13.3316 4.62928 13.3269 4.64061C13.3223 4.65193 13.3198 4.66407 13.3198 4.67632V24.8052Z" fill="white"/>
<path d="M22.6531 6.91634H21.0976V8.47189H22.6531V6.91634Z" fill="white"/>
<path d="M19.5421 6.91634H17.9865V8.47189H19.5421V6.91634Z" fill="white"/>
<path d="M16.4309 6.91634H14.8754V8.47189H16.4309V6.91634Z" fill="white"/>
<path d="M22.6531 10.8052H21.0976V12.3608H22.6531V10.8052Z" fill="white"/>
<path d="M19.5421 10.8052H17.9865V12.3608H19.5421V10.8052Z" fill="white"/>
<path d="M16.4309 10.8052H14.8754V12.3608H16.4309V10.8052Z" fill="white"/>
<path d="M22.6531 14.6941H21.0976V16.2497H22.6531V14.6941Z" fill="white"/>
<path d="M19.5421 14.6941H17.9865V16.2497H19.5421V14.6941Z" fill="white"/>
<path d="M16.4309 14.6941H14.8754V16.2497H16.4309V14.6941Z" fill="white"/>
<path d="M22.6531 18.583H21.0976V20.1385H22.6531V18.583Z" fill="white"/>
<path d="M19.5421 18.583H17.9865V20.1385H19.5421V18.583Z" fill="white"/>
<path d="M16.4309 18.583H14.8754V20.1385H16.4309V18.583Z" fill="white"/>
<path d="M10.9865 10.8052H9.43089V12.3608H10.9865V10.8052Z" fill="white"/>
<path d="M7.87537 10.8052H6.31981V12.3608H7.87537V10.8052Z" fill="white"/>
<path d="M10.9865 14.6941H9.43089V16.2497H10.9865V14.6941Z" fill="white"/>
<path d="M7.87537 14.6941H6.31981V16.2497H7.87537V14.6941Z" fill="white"/>
<path d="M10.9865 18.583H9.43089V20.1385H10.9865V18.583Z" fill="white"/>
<path d="M7.87537 18.583H6.31981V20.1385H7.87537V18.583Z" fill="white"/>
</g>
<defs>
<clipPath id="clip0_206_8122">
<rect width="28" height="28" fill="white" transform="matrix(-1 0 0 1 28.8754 0.694107)"/>
</clipPath>
</defs>
</svg>
