<svg width="23" height="25" viewBox="0 0 23 25" fill="none" xmlns="http://www.w3.org/2000/svg">
<path d="M17.2546 4.7085C16.2859 4.7085 15.3568 4.30341 14.6718 3.58235C13.9868 2.86129 13.6019 1.88332 13.6019 0.863586M17.2546 7.27178C16.2859 7.27178 15.3568 7.67686 14.6718 8.39792C13.9868 9.11899 13.6019 10.097 13.6019 11.1167M2.64383 4.7085C3.61259 4.7085 4.54167 4.30341 5.22668 3.58235C5.91169 2.86129 6.29653 1.88332 6.29653 0.863586M2.64383 7.27178C3.61259 7.27178 4.54167 7.67686 5.22668 8.39792C5.91169 9.11899 6.29653 10.097 6.29653 11.1167M1.42627 23.1487H4.17797C5.40771 23.1487 6.65328 23.2846 7.85014 23.5435C9.98712 24.0041 12.1855 24.0554 14.3398 23.6947C15.3966 23.5153 16.434 23.2397 17.3739 22.7629C18.2214 22.331 19.2599 21.7248 19.9576 21.0443C20.6541 20.365 21.3797 19.2538 21.8935 18.3849C22.3367 17.6389 22.1224 16.7251 21.4236 16.1702C21.0306 15.8701 20.5576 15.7084 20.0721 15.7084C19.5866 15.7084 19.1135 15.8701 18.7206 16.1702L16.5204 17.9196C15.6681 18.5989 14.7367 19.223 13.6275 19.4089C13.4936 19.4311 13.3535 19.4512 13.2074 19.4691M13.2074 19.4691L13.0735 19.4845M13.2074 19.4691C13.4023 19.4135 13.5809 19.3078 13.7273 19.1615C13.9111 18.9947 14.0612 18.7907 14.1687 18.5616C14.2762 18.3326 14.339 18.0832 14.3533 17.8282C14.3676 17.5731 14.3332 17.3177 14.252 17.0769C14.1708 16.8362 14.0446 16.615 13.8807 16.4265C13.7221 16.2411 13.5373 16.0825 13.3328 15.9562C9.92731 13.8171 4.62725 15.4461 1.42627 17.8363M13.2074 19.4691C13.1635 19.4795 13.1185 19.4846 13.0735 19.4845M13.0735 19.4845C12.3392 19.562 11.5995 19.5637 10.8648 19.4896" stroke="white" stroke-width="1.5" stroke-linecap="round"/>
</svg>
