<svg width="43" height="43" viewBox="0 0 43 43" fill="none" xmlns="http://www.w3.org/2000/svg">
<g clip-path="url(#clip0_2377_141)">
<path d="M22.687 15.8177C22.9672 15.8788 23.2439 15.7012 23.305 15.421C23.3661 15.1408 23.1884 14.8641 22.9082 14.803C22.628 14.7419 22.3513 14.9195 22.2902 15.1997C22.2291 15.4799 22.4068 15.7566 22.687 15.8177Z" fill="black"/>
<path d="M20.4155 26.2355C20.6957 26.2966 20.9724 26.1189 21.0335 25.8387C21.0946 25.5585 20.917 25.2818 20.6368 25.2207C20.3565 25.1596 20.0799 25.3373 20.0188 25.6175C19.9577 25.8977 20.1353 26.1744 20.4155 26.2355Z" fill="black"/>
<path d="M36 23.9435C36.2802 24.0046 36.5569 23.8269 36.618 23.5467C36.6791 23.2665 36.5014 22.9898 36.2212 22.9287C35.941 22.8676 35.6643 23.0453 35.6032 23.3255C35.5421 23.6057 35.7198 23.8824 36 23.9435Z" fill="black"/>
<path d="M7.19967 17.6634C7.47988 17.7245 7.75656 17.5469 7.81766 17.2667C7.87876 16.9865 7.70114 16.7098 7.42093 16.6487C7.14073 16.5876 6.86404 16.7652 6.80294 17.0454C6.74184 17.3257 6.91946 17.6023 7.19967 17.6634Z" fill="black"/>
<path d="M29.7417 21.1C30.0219 21.1611 30.2986 20.9834 30.3597 20.7032C30.4208 20.423 30.2431 20.1463 29.9629 20.0852C29.6827 20.0241 29.406 20.2018 29.3449 20.482C29.2838 20.7622 29.4615 21.0389 29.7417 21.1Z" fill="black"/>
<path d="M14.0732 17.6833C14.3534 17.7444 14.6301 17.5668 14.6912 17.2866C14.7523 17.0064 14.5747 16.7297 14.2945 16.6686C14.0143 16.6075 13.7376 16.7851 13.6765 17.0653C13.6154 17.3455 13.793 17.6222 14.0732 17.6833Z" fill="black"/>
<path d="M34.1346 33.5143L4.91075 27.142C4.07013 26.9587 3.24008 27.4915 3.05678 28.3321C2.87348 29.1728 3.40634 30.0028 4.24696 30.1861L33.4708 36.5585C34.3114 36.7418 35.1415 36.2089 35.3248 35.3683C35.5081 34.5277 34.9752 33.6976 34.1346 33.5143Z" fill="#FED030"/>
<path d="M34.1348 33.5144L33.1201 33.2931C33.5238 33.3811 33.876 33.6259 34.0992 33.9736C34.3224 34.3213 34.3983 34.7434 34.3103 35.1471C34.2223 35.5507 33.9775 35.9029 33.6298 36.1261C33.2821 36.3493 32.86 36.4253 32.4563 36.3372L33.471 36.5585C33.8747 36.6465 34.2968 36.5706 34.6445 36.3474C34.9922 36.1242 35.237 35.772 35.325 35.3683C35.413 34.9646 35.3371 34.5425 35.1139 34.1948C34.8907 33.8472 34.5385 33.6024 34.1348 33.5144Z" fill="#F8BE32"/>
<path d="M5.26625 27.2195C5.35602 24.7777 5.44507 22.336 5.53339 19.8944L5.53734 13.7081L9.70007 16.6354L9.68123 16.6568C9.42742 16.8483 9.23388 17.1086 9.12358 17.4068C9.01327 17.705 8.99084 18.0286 9.05894 18.3392C9.12703 18.6498 9.2828 18.9343 9.50775 19.159C9.73271 19.3837 10.0174 19.5391 10.3281 19.6068C10.6387 19.6746 10.9623 19.6518 11.2603 19.5411C11.5584 19.4305 11.8185 19.2366 12.0097 18.9826C12.2009 18.7286 12.3152 18.425 12.3391 18.108C12.3629 17.7909 12.2953 17.4737 12.1443 17.1939L12.1354 17.1664C12.819 15.4872 13.5029 13.8078 14.1871 12.1282L16.3036 17.225C16.1413 17.5007 16.0417 17.8087 16.0119 18.1272C15.9167 19.2141 16.7185 19.9629 16.8132 20.0488C17.1663 20.3645 17.6013 20.5741 18.0682 20.6536C18.5352 20.7331 19.015 20.6792 19.4527 20.4982C20.6808 19.978 20.9223 18.6757 20.944 18.5337C21.1209 17.4754 20.6198 16.3775 19.669 15.7266L24.1962 8.81239L24.2314 8.82006L25.4671 16.9909C24.3316 17.1869 23.4189 17.9764 23.1392 19.0124C23.1019 19.151 22.7793 20.4355 23.6773 21.4194C24 21.7661 24.4139 22.0148 24.8716 22.1367C25.3292 22.2587 25.812 22.2491 26.2644 22.1089C26.3862 22.0703 27.4268 21.7246 27.7929 20.6954C27.8985 20.3934 27.9362 20.0719 27.9033 19.7536L31.9496 16.0007C31.872 17.8121 31.7947 19.6238 31.7176 21.4357L31.698 21.457C31.4442 21.6485 31.2507 21.9088 31.1404 22.207C31.0301 22.5052 31.0076 22.8288 31.0757 23.1393C31.1438 23.4499 31.2996 23.7344 31.5246 23.9591C31.7495 24.1838 32.0342 24.3392 32.3449 24.407C32.6555 24.4747 32.9791 24.4519 33.2771 24.3413C33.5752 24.2306 33.8353 24.0368 34.0265 23.7828C34.2177 23.5287 34.332 23.2252 34.3559 22.9081C34.3797 22.5911 34.3121 22.2738 34.1611 21.994L34.1529 21.9667L39.1583 21.0393L36.5844 26.6687C35.6485 28.926 34.713 31.1831 33.7777 33.4401L5.26625 27.2195Z" fill="#FED030"/>
<path d="M20.0515 16.0346C19.9908 15.8509 19.9119 15.6737 19.816 15.5056C19.7674 15.5794 19.7192 15.6539 19.6706 15.7276C19.8052 15.82 19.9326 15.9227 20.0515 16.0346ZM30.9256 20.2007L30.9061 20.222C30.6892 20.3856 30.5157 20.5999 30.4008 20.8461C30.286 21.0923 30.2332 21.3629 30.2472 21.6343C30.2612 21.9056 30.3415 22.1694 30.4811 22.4025C30.6207 22.6355 30.8153 22.8309 31.0479 22.9713C31.0154 22.6842 31.0582 22.3936 31.1723 22.1282C31.2863 21.8628 31.4676 21.6317 31.6982 21.4577L31.7177 21.4364C31.7948 19.6249 31.8726 17.8134 31.9511 16.0017C31.6577 16.2746 31.364 16.5469 31.07 16.8187L30.9256 20.2007ZM24.6733 15.7548C23.5378 15.9508 22.6252 16.7404 22.3454 17.7763C22.3081 17.9149 21.9855 19.1995 22.8835 20.1833C22.9622 20.2692 23.0471 20.3493 23.1374 20.4229C23.022 19.9597 23.0218 19.4752 23.1368 19.0119C23.4166 17.9759 24.3293 17.1864 25.4647 16.9903L24.2311 8.81997L24.1959 8.8123L23.7299 9.52564L24.6733 15.7548Z" fill="#F8BE32"/>
<path d="M37.6744 21.3123C37.0467 22.6872 36.4196 24.0596 35.793 25.4296L33.4293 31.1318C33.3048 31.4319 33.0787 31.6788 32.7906 31.8291C32.5025 31.9793 32.1707 32.0235 31.8533 31.9539L5.30489 26.1649L5.26628 27.2194L33.7798 33.4369L36.5865 26.6656L39.1604 21.0361L37.6744 21.3123ZM15.5102 15.9889C15.3479 16.2646 15.2483 16.5727 15.2185 16.8912C15.1232 17.978 15.9251 18.7269 16.0198 18.8127C16.04 18.8306 16.0605 18.8471 16.0795 18.864C16.0121 18.6244 15.9885 18.3747 16.0099 18.1267C16.0397 17.8082 16.1393 17.5001 16.3016 17.2245L14.1871 12.1282L14.0484 12.4685L15.5102 15.9889ZM8.23184 16.6157C8.20744 16.9234 8.26929 17.2319 8.41043 17.5066C8.55157 17.7812 8.76643 18.011 9.03091 18.1703C8.99839 17.8833 9.04127 17.5927 9.15532 17.3273C9.26937 17.0619 9.45064 16.8307 9.68126 16.6568L9.7001 16.6354L8.51722 15.8041C8.3525 16.0449 8.25408 16.3248 8.23184 16.6157Z" fill="#F8BE32"/>
<path d="M20.0537 27.8929C21.2679 28.1576 22.4669 27.3879 22.7317 26.1737C22.9964 24.9595 22.2267 23.7605 21.0125 23.4958C19.7983 23.231 18.5993 24.0007 18.3346 25.2149C18.0698 26.4291 18.8395 27.6281 20.0537 27.8929Z" fill="#EB304A"/>
<path d="M21.0127 23.4958C20.8419 23.4586 20.6672 23.4415 20.4924 23.4447C20.9488 23.664 21.3179 24.0308 21.54 24.4858C21.7621 24.9409 21.8243 25.4576 21.7164 25.9523C21.6085 26.447 21.3369 26.8909 20.9455 27.2122C20.5541 27.5334 20.0658 27.7133 19.5595 27.7227C19.8458 27.8603 20.158 27.9357 20.4755 27.9439C20.7931 27.9522 21.1087 27.8932 21.4018 27.7707C21.6949 27.6482 21.9587 27.4651 22.1759 27.2333C22.3931 27.0016 22.5588 26.7264 22.6621 26.4261C22.7654 26.1257 22.8039 25.8069 22.7751 25.4905C22.7463 25.1742 22.6508 24.8676 22.495 24.5908C22.3392 24.314 22.1266 24.0733 21.8711 23.8846C21.6156 23.6958 21.3231 23.5633 21.0127 23.4958Z" fill="#E4222E"/>
<path d="M31.8798 29.2314C32.4402 29.3536 32.9936 28.9984 33.1158 28.438C33.238 27.8775 32.8827 27.3242 32.3223 27.202C31.7619 27.0798 31.2086 27.435 31.0864 27.9954C30.9642 28.5558 31.3194 29.1092 31.8798 29.2314Z" fill="#EB304A"/>
<path d="M32.322 27.2021C32.2485 27.1862 32.1734 27.1784 32.0982 27.1788C32.3124 27.2781 32.4864 27.4475 32.5914 27.659C32.6965 27.8705 32.7263 28.1115 32.676 28.3422C32.6257 28.5729 32.4982 28.7796 32.3147 28.9282C32.1311 29.0768 31.9024 29.1584 31.6663 29.1595C31.7988 29.221 31.9428 29.2538 32.0889 29.2558C32.235 29.2578 32.3798 29.229 32.514 29.1712C32.6482 29.1134 32.7687 29.0279 32.8676 28.9204C32.9665 28.8129 33.0416 28.6857 33.088 28.5472C33.1344 28.4087 33.1511 28.2619 33.1369 28.1165C33.1227 27.9711 33.078 27.8304 33.0057 27.7034C32.9334 27.5765 32.8352 27.4662 32.7174 27.3798C32.5995 27.2934 32.4648 27.2328 32.322 27.2021Z" fill="#E4222E"/>
<path d="M8.74407 24.1866C9.30448 24.3088 9.85785 23.9536 9.98005 23.3932C10.1022 22.8327 9.747 22.2794 9.18659 22.1572C8.62618 22.035 8.07281 22.3902 7.95061 22.9506C7.82841 23.511 8.18365 24.0644 8.74407 24.1866Z" fill="#EB304A"/>
<path d="M13.9464 26.6524L12.6988 23.9859L14.9433 22.0808L16.1908 24.7473L13.9464 26.6524Z" fill="#1CABE1"/>
<path d="M14.9434 22.0808L14.2916 22.6325L14.953 24.0452C15.0174 24.1828 15.0347 24.3377 15.0023 24.4861C14.97 24.6345 14.8897 24.7681 14.7739 24.8664L13.5836 25.8796L13.9461 26.6545L16.191 24.7474L14.9434 22.0808Z" fill="#199AD5"/>
<path d="M26.1231 29.3077L24.8756 26.6412L27.12 24.7361L28.3676 27.4026L26.1231 29.3077Z" fill="#1CABE1"/>
<path d="M27.1202 24.736L26.4684 25.2876L27.1298 26.7003C27.1941 26.8379 27.2115 26.9928 27.1791 27.1412C27.1467 27.2896 27.0665 27.4233 26.9507 27.5216L25.7603 28.5347L26.1228 29.3097L28.3677 27.4025L27.1202 24.736Z" fill="#199AD5"/>
<path d="M22.687 15.8177C22.9672 15.8788 23.2439 15.7012 23.305 15.421C23.3661 15.1408 23.1884 14.8641 22.9082 14.803C22.628 14.7419 22.3513 14.9195 22.2902 15.1997C22.2291 15.4799 22.4068 15.7566 22.687 15.8177Z" fill="#EB304A"/>
<path d="M20.4155 26.2355C20.6957 26.2966 20.9724 26.1189 21.0335 25.8387C21.0946 25.5585 20.917 25.2818 20.6368 25.2207C20.3565 25.1596 20.0799 25.3373 20.0188 25.6175C19.9577 25.8977 20.1353 26.1744 20.4155 26.2355Z" fill="white"/>
<path d="M36 23.9435C36.2802 24.0046 36.5569 23.8269 36.618 23.5467C36.6791 23.2665 36.5014 22.9898 36.2212 22.9287C35.941 22.8676 35.6643 23.0453 35.6032 23.3255C35.5421 23.6057 35.7198 23.8824 36 23.9435Z" fill="#EB304A"/>
<path d="M7.19967 17.6634C7.47988 17.7245 7.75656 17.5469 7.81766 17.2667C7.87876 16.9865 7.70114 16.7098 7.42093 16.6487C7.14073 16.5876 6.86404 16.7652 6.80294 17.0454C6.74184 17.3257 6.91946 17.6023 7.19967 17.6634Z" fill="#EB304A"/>
<path d="M29.7417 21.1C30.0219 21.1611 30.2986 20.9834 30.3597 20.7032C30.4208 20.423 30.2431 20.1463 29.9629 20.0852C29.6827 20.0241 29.406 20.2018 29.3449 20.482C29.2838 20.7622 29.4615 21.0389 29.7417 21.1Z" fill="#1CABE1"/>
<path d="M14.0732 17.6833C14.3534 17.7444 14.6301 17.5668 14.6912 17.2866C14.7523 17.0064 14.5747 16.7297 14.2945 16.6686C14.0143 16.6075 13.7376 16.7851 13.6765 17.0653C13.6154 17.3455 13.793 17.6222 14.0732 17.6833Z" fill="#1CABE1"/>
<path d="M9.18676 22.1571C9.11323 22.1413 9.03818 22.1335 8.96295 22.1339C9.17718 22.2332 9.35116 22.4026 9.45619 22.6141C9.56123 22.8256 9.59105 23.0666 9.54074 23.2973C9.49043 23.528 9.36299 23.7347 9.17944 23.8833C8.99589 24.0319 8.76719 24.1134 8.53105 24.1146C8.66358 24.176 8.80759 24.2088 8.95366 24.2109C9.09974 24.2129 9.2446 24.184 9.37877 24.1263C9.51295 24.0685 9.63342 23.983 9.73232 23.8755C9.83123 23.768 9.90633 23.6408 9.95274 23.5023C9.99914 23.3638 10.0158 23.217 10.0016 23.0716C9.98744 22.9262 9.94275 22.7854 9.87046 22.6585C9.79817 22.5315 9.69991 22.4213 9.5821 22.3349C9.46429 22.2485 9.32957 22.1879 9.18676 22.1571Z" fill="#E4222E"/>
</g>
<defs>
<clipPath id="clip0_2377_141">
<rect width="35.4495" height="35.4495" fill="white" transform="translate(7.99463 0.000244141) rotate(12.301)"/>
</clipPath>
</defs>
</svg>
