<svg width="53" height="32" viewBox="0 0 53 32" fill="none" xmlns="http://www.w3.org/2000/svg">
<path d="M13.0183 31.0347C12.4063 23.6467 6.9666 17.8102 0.166977 17.1452C0.778943 24.5333 6.21864 30.3698 13.0183 31.0347Z" fill="url(#paint0_linear_2343_347)"/>
<path d="M40.6247 17.2929C33.8251 17.884 28.3854 23.7945 27.7735 31.1825C34.573 30.5176 40.0127 24.681 40.6247 17.2929Z" fill="url(#paint1_linear_2343_347)"/>
<path d="M40.6247 14.7071C40.0127 7.31898 34.573 1.48242 27.7735 0.817505C28.3854 8.20556 33.8251 14.0422 40.6247 14.7071Z" fill="url(#paint2_linear_2343_347)"/>
<path d="M40.1487 31.0347C46.9483 30.3698 52.388 24.5333 53 17.1452C46.2004 17.7362 40.7606 23.6467 40.1487 31.0347Z" fill="url(#paint3_linear_2343_347)"/>
<path d="M12.5424 17.2929C13.1544 24.681 18.5941 30.5176 25.3937 31.1825C24.7817 23.7945 19.342 17.9578 12.5424 17.2929Z" fill="url(#paint4_linear_2343_347)"/>
<path d="M12.5424 14.7071C19.342 14.116 24.7817 8.20556 25.3937 0.817505C18.5941 1.40855 13.1544 7.31898 12.5424 14.7071Z" fill="url(#paint5_linear_2343_347)"/>
<path d="M23.1497 15.9629C23.1497 19.6568 24.3736 23.2031 26.5496 25.9368C31.1052 20.1741 31.1052 11.7517 26.5496 5.98898C24.3736 8.79644 23.1497 12.3427 23.1497 15.9629Z" fill="url(#paint6_linear_2343_347)"/>
<defs>
<linearGradient id="paint0_linear_2343_347" x1="6.59431" y1="31.301" x2="6.59431" y2="16.3873" gradientUnits="userSpaceOnUse">
<stop stop-color="#064367"/>
<stop offset="1" stop-color="#188F7A"/>
</linearGradient>
<linearGradient id="paint1_linear_2343_347" x1="34.2081" y1="31.3008" x2="34.2081" y2="16.3873" gradientUnits="userSpaceOnUse">
<stop stop-color="#064367"/>
<stop offset="1" stop-color="#188F7A"/>
</linearGradient>
<linearGradient id="paint2_linear_2343_347" x1="34.2081" y1="31.3007" x2="34.2081" y2="16.3872" gradientUnits="userSpaceOnUse">
<stop stop-color="#064367"/>
<stop offset="1" stop-color="#188F7A"/>
</linearGradient>
<linearGradient id="paint3_linear_2343_347" x1="46.5737" y1="31.301" x2="46.5737" y2="16.3873" gradientUnits="userSpaceOnUse">
<stop stop-color="#064367"/>
<stop offset="1" stop-color="#188F7A"/>
</linearGradient>
<linearGradient id="paint4_linear_2343_347" x1="18.9726" y1="31.3008" x2="18.9726" y2="16.3873" gradientUnits="userSpaceOnUse">
<stop stop-color="#064367"/>
<stop offset="1" stop-color="#188F7A"/>
</linearGradient>
<linearGradient id="paint5_linear_2343_347" x1="18.9726" y1="31.3007" x2="18.9726" y2="16.3872" gradientUnits="userSpaceOnUse">
<stop stop-color="#064367"/>
<stop offset="1" stop-color="#188F7A"/>
</linearGradient>
<linearGradient id="paint6_linear_2343_347" x1="26.5581" y1="5.98898" x2="26.5581" y2="25.9368" gradientUnits="userSpaceOnUse">
<stop stop-color="#009174"/>
<stop offset="1" stop-color="#003F6A"/>
</linearGradient>
</defs>
</svg>
