<svg width="16" height="16" viewBox="0 0 16 16" fill="none" xmlns="http://www.w3.org/2000/svg">
<path fill-rule="evenodd" clip-rule="evenodd" d="M0.250004 1.125C0.250004 0.95924 0.315852 0.800269 0.433062 0.683058C0.550272 0.565848 0.709244 0.5 0.875004 0.5H8.375C8.54076 0.5 8.69974 0.565848 8.81695 0.683058C8.93416 0.800269 9 0.95924 9 1.125C9 1.29076 8.93416 1.44973 8.81695 1.56694C8.69974 1.68415 8.54076 1.75 8.375 1.75H2.38375L15.0675 14.4325C15.1256 14.4906 15.1717 14.5596 15.2032 14.6355C15.2346 14.7114 15.2508 14.7928 15.2508 14.875C15.2508 14.9572 15.2346 15.0386 15.2032 15.1145C15.1717 15.1904 15.1256 15.2594 15.0675 15.3175C15.0094 15.3756 14.9404 15.4217 14.8645 15.4532C14.7886 15.4846 14.7072 15.5008 14.625 15.5008C14.5428 15.5008 14.4614 15.4846 14.3855 15.4532C14.3096 15.4217 14.2406 15.3756 14.1825 15.3175L1.5 2.63375V8.625C1.5 8.79076 1.43416 8.94973 1.31695 9.06694C1.19974 9.18415 1.04076 9.25 0.875004 9.25C0.709244 9.25 0.550272 9.18415 0.433062 9.06694C0.315852 8.94973 0.250004 8.79076 0.250004 8.625V1.125Z" fill="#172B4D"/>
</svg>
