<svg width="151" height="103" viewBox="0 0 151 103" fill="none" xmlns="http://www.w3.org/2000/svg">
<path d="M150.598 21.9981C147.004 40.745 143.668 59.5652 139.885 78.2626C138.489 82.2284 135.167 84.8557 131.296 85.4635L96.1156 85.5045L78.7634 101.35C76.8863 102.812 74.2108 102.855 72.3216 101.402L58.7157 88.9314L74.575 85.4786H19.5887C19.3125 85.4786 17.9437 85.0152 17.5755 84.8837C14.2976 83.7285 11.8861 80.9524 10.8435 77.4436L0.419408 22.2481C-0.210962 15.8123 4.10357 10.146 10.1371 9.76453L42.0379 9.77099C42.6142 13.5773 43.1485 17.4396 43.8169 21.2286C44.4012 24.5392 45.3078 26.7958 48.7398 27.3541C66.6043 27.3454 84.4168 27.3411 102.277 27.3541C105.709 26.7958 106.616 24.5392 107.2 21.2286C107.869 17.4396 108.409 13.5773 108.979 9.77099L140.996 9.76453C146.839 10.1589 151.124 15.7132 150.598 21.9981Z" fill="#7009B3"/>
<path d="M113.698 4.2953C112.877 2.01796 111.012 1.02538 108.803 0.385002L42.1939 0.36499C40.0726 0.989357 38.0914 2.09801 37.305 4.27929C36.5005 6.51861 37.4231 9.61042 37.7993 11.9318C38.4477 15.9141 39.05 19.9545 39.8045 23.9168C40.4628 27.3809 41.4834 29.7402 45.3517 30.3246C65.4795 30.3166 85.5473 30.3106 105.669 30.3246C109.535 29.7402 110.558 27.3809 111.216 23.9168C111.969 19.9525 112.577 15.9121 113.222 11.9318C113.596 9.60642 114.504 6.52261 113.702 4.2953H113.698Z" fill="#BCD530"/>
<path d="M46.867 14.0163C46.867 13.9338 46.9083 13.8925 46.9908 13.8925H49.2063C49.2889 13.8925 49.3301 13.9338 49.3301 14.0163V19.6232C49.3301 19.8708 49.3755 20.044 49.4663 20.1431C49.5653 20.2338 49.7179 20.2792 49.9242 20.2792H50.0356C50.2006 20.2792 50.3244 20.3576 50.4069 20.5144C50.4894 20.6712 50.5307 20.9476 50.5307 21.3437C50.5307 21.7315 50.4894 21.9914 50.4069 22.1234C50.3327 22.2472 50.2089 22.3091 50.0356 22.3091H48.3152C47.7953 22.3091 47.424 22.1853 47.2012 21.9378C46.9784 21.682 46.867 21.2859 46.867 20.7495V14.0163ZM50.0438 22.3091C49.8788 22.3091 49.755 22.2513 49.6725 22.1358C49.59 22.012 49.5487 21.7604 49.5487 21.3808C49.5487 20.6464 49.7138 20.2792 50.0438 20.2792H51.8757C52.2057 20.2792 52.3708 20.634 52.3708 21.3437C52.3708 21.748 52.3295 22.012 52.247 22.1358C52.1727 22.2513 52.049 22.3091 51.8757 22.3091H50.0438ZM51.8932 22.3091C51.7281 22.3091 51.6044 22.2513 51.5219 22.1358C51.4393 22.012 51.3981 21.7604 51.3981 21.3808C51.3981 20.6464 51.5631 20.2792 51.8932 20.2792H53.725C54.0551 20.2792 54.2201 20.634 54.2201 21.3437C54.2201 21.748 54.1788 22.012 54.0963 22.1358C54.0221 22.2513 53.8983 22.3091 53.725 22.3091H51.8932ZM53.7425 22.3091C53.5775 22.3091 53.4537 22.2513 53.3712 22.1358C53.2887 22.012 53.2474 21.7604 53.2474 21.3808C53.2474 20.6464 53.4125 20.2792 53.7425 20.2792H55.5743C55.9044 20.2792 56.0694 20.634 56.0694 21.3437C56.0694 21.748 56.0282 22.012 55.9457 22.1358C55.8714 22.2513 55.7476 22.3091 55.5743 22.3091H53.7425ZM55.7855 12.9988C55.703 12.9988 55.6618 12.9576 55.6618 12.875V12.5409C55.6618 12.4583 55.703 12.4171 55.7855 12.4171H58.9294C59.0119 12.4171 59.0531 12.4583 59.0531 12.5409V12.875C59.0531 12.9576 59.0119 12.9988 58.9294 12.9988H55.7855ZM55.7855 14.0261C55.703 14.0261 55.6618 13.9849 55.6618 13.9024V13.5682C55.6618 13.4857 55.703 13.4444 55.7855 13.4444H58.9294C59.0119 13.4444 59.0531 13.4857 59.0531 13.5682V13.9024C59.0531 13.9849 59.0119 14.0261 58.9294 14.0261H55.7855ZM56.3469 24.9083C56.2643 24.9083 56.2231 24.8671 56.2231 24.7845V23.2498C56.2231 23.1672 56.2643 23.126 56.3469 23.126H58.5748C58.6573 23.126 58.6985 23.1672 58.6985 23.2498V24.7845C58.6985 24.8671 58.6573 24.9083 58.5748 24.9083H56.3469ZM58.55 21.7026C58.3437 22.1069 57.9229 22.3091 57.2875 22.3091H55.5795C55.4144 22.3091 55.2907 22.2802 55.2082 22.2224C55.1256 22.1647 55.0844 22.0492 55.0844 21.8759C55.0844 21.7769 55.0968 21.6366 55.1215 21.4551C55.138 21.2735 55.1669 21.0961 55.2082 20.9228C55.2412 20.7495 55.2907 20.601 55.3567 20.4772C55.4144 20.3452 55.4887 20.2792 55.5795 20.2792H55.6785C55.8848 20.2792 56.0333 20.2338 56.1241 20.1431C56.2231 20.044 56.2726 19.8708 56.2726 19.6232V17.0611C56.2726 16.9786 56.3139 16.9373 56.3964 16.9373H58.6119C58.6944 16.9373 58.7357 16.9786 58.7357 17.0611V19.7717C58.7687 19.912 58.8429 20.0317 58.9585 20.1307C59.074 20.2297 59.2555 20.2792 59.5031 20.2792H59.9239C60.254 20.2792 60.419 20.6216 60.419 21.3065C60.419 21.6118 60.3777 21.8552 60.2952 22.0368C60.2209 22.2183 60.0972 22.3091 59.9239 22.3091C59.6351 22.3091 59.3793 22.272 59.1565 22.1977C58.942 22.1152 58.7398 21.9501 58.55 21.7026ZM62.8893 21.7026C62.683 22.1069 62.2622 22.3091 61.6268 22.3091H59.9188C59.7537 22.3091 59.63 22.2802 59.5475 22.2224C59.4649 22.1647 59.4237 22.0492 59.4237 21.8759C59.4237 21.7769 59.4361 21.6366 59.4608 21.4551C59.4773 21.2735 59.5062 21.0961 59.5475 20.9228C59.5805 20.7495 59.63 20.601 59.696 20.4772C59.7537 20.3452 59.828 20.2792 59.9188 20.2792H60.0178C60.2241 20.2792 60.3726 20.2338 60.4634 20.1431C60.5624 20.044 60.6119 19.8708 60.6119 19.6232V14.0163C60.6119 13.9338 60.6532 13.8925 60.7357 13.8925H62.9512C63.0337 13.8925 63.075 13.9338 63.075 14.0163V19.7717C63.108 19.912 63.1822 20.0317 63.2978 20.1307C63.4133 20.2297 63.5948 20.2792 63.8424 20.2792H64.2632C64.5933 20.2792 64.7583 20.6216 64.7583 21.3065C64.7583 21.6118 64.717 21.8552 64.6345 22.0368C64.5602 22.2183 64.4365 22.3091 64.2632 22.3091C63.9744 22.3091 63.7186 22.272 63.4958 22.1977C63.2813 22.1152 63.0791 21.9501 62.8893 21.7026ZM64.7903 20.2792C64.9553 20.2792 65.0626 20.2338 65.1121 20.1431C65.1699 20.044 65.1987 19.8708 65.1987 19.6232V14.0163C65.1987 13.9338 65.24 13.8925 65.3225 13.8925H67.538C67.6206 13.8925 67.6618 13.9338 67.6618 14.0163V17.1849C68.0084 17.0611 68.3797 16.958 68.7758 16.8755C69.1801 16.7847 69.6051 16.7393 70.0506 16.7393C70.4715 16.7393 70.8758 16.7806 71.2636 16.8631C71.6514 16.9456 71.9897 17.0983 72.2785 17.321C72.5756 17.5356 72.8108 17.8409 72.984 18.237C73.1573 18.6248 73.244 19.1281 73.244 19.747C73.244 20.2173 73.1986 20.6175 73.1078 20.9476C73.0171 21.2694 72.8644 21.5334 72.6499 21.7397C72.4436 21.9378 72.1713 22.0822 71.833 22.1729C71.4946 22.2637 71.0738 22.3091 70.5705 22.3091H68.2807C67.8186 22.3091 67.4927 22.1894 67.3029 21.9501C67.0718 22.1894 66.7088 22.3091 66.2137 22.3091H64.2581C64.093 22.3091 63.9693 22.2389 63.8867 22.0987C63.8042 21.9501 63.763 21.6696 63.763 21.257C63.763 21.0425 63.7754 20.8733 63.8001 20.7495C63.8166 20.6175 63.8455 20.5185 63.8867 20.4525C63.9198 20.3782 63.9693 20.3328 64.0353 20.3163C64.093 20.2916 64.1673 20.2792 64.2581 20.2792H64.7903ZM69.4689 18.7692C69.1471 18.7692 68.8335 18.8063 68.5282 18.8806C68.2229 18.9466 67.9341 19.0291 67.6618 19.1281V20.2792H69.6298C69.8526 20.2792 70.0341 20.271 70.1744 20.2545C70.3229 20.2297 70.4343 20.1926 70.5086 20.1431C70.5911 20.0936 70.6447 20.0275 70.6695 19.945C70.7025 19.8543 70.719 19.7429 70.719 19.6108C70.719 19.4623 70.6984 19.3385 70.6571 19.2395C70.6241 19.1322 70.5622 19.0456 70.4715 18.9796C70.3807 18.9053 70.2528 18.8517 70.0878 18.8187C69.9227 18.7857 69.7164 18.7692 69.4689 18.7692ZM76.8935 24.9083C76.811 24.9083 76.7697 24.8671 76.7697 24.7845V23.0022C76.7697 22.9197 76.811 22.8784 76.8935 22.8784H77.1411C77.4876 22.8784 77.7228 22.7918 77.8466 22.6185C77.9703 22.4452 78.0322 22.1812 78.0322 21.8264V17.0611C78.0322 16.9786 78.0735 16.9373 78.156 16.9373H80.3715C80.4541 16.9373 80.4953 16.9786 80.4953 17.0611V19.7717C80.5283 19.912 80.6026 20.0317 80.7181 20.1307C80.8336 20.2297 81.0152 20.2792 81.2627 20.2792H81.6835C82.0136 20.2792 82.1786 20.6216 82.1786 21.3065C82.1786 21.6118 82.1374 21.8552 82.0548 22.0368C81.9806 22.2183 81.8568 22.3091 81.6835 22.3091C81.3947 22.3091 81.1554 22.2802 80.9656 22.2224C80.7841 22.1564 80.6273 22.0368 80.4953 21.8635V21.9873C80.4953 23.0105 80.2643 23.7531 79.8022 24.2152C79.3483 24.6773 78.647 24.9083 77.698 24.9083H76.8935ZM83.2226 13.5336C83.14 13.5336 83.0988 13.4923 83.0988 13.4098V11.875C83.0988 11.7925 83.14 11.7513 83.2226 11.7513H85.0915C85.174 11.7513 85.2153 11.7925 85.2153 11.875V13.4098C85.2153 13.4923 85.174 13.5336 85.0915 13.5336H83.2226ZM82.2324 15.6749C82.1499 15.6749 82.1086 15.6336 82.1086 15.5511V14.0163C82.1086 13.9338 82.1499 13.8925 82.2324 13.8925H83.8786C83.9611 13.8925 84.0023 13.9338 84.0023 14.0163V15.5511C84.0023 15.6336 83.9611 15.6749 83.8786 15.6749H82.2324ZM84.4727 15.6749C84.3902 15.6749 84.3489 15.6336 84.3489 15.5511V14.0163C84.3489 13.9338 84.3902 13.8925 84.4727 13.8925H86.1188C86.2014 13.8925 86.2426 13.9338 86.2426 14.0163V15.5511C86.2426 15.6336 86.2014 15.6749 86.1188 15.6749H84.4727ZM85.2401 21.7026C85.0338 22.1069 84.6129 22.3091 83.9776 22.3091H81.6878C81.5228 22.3091 81.399 22.2348 81.3165 22.0863C81.2339 21.9378 81.1927 21.6655 81.1927 21.2694C81.1927 20.9228 81.2339 20.6712 81.3165 20.5144C81.3907 20.3576 81.5145 20.2792 81.6878 20.2792H82.3685C82.5748 20.2792 82.7233 20.2338 82.8141 20.1431C82.9131 20.044 82.9626 19.8708 82.9626 19.6232V17.0611C82.9626 16.9786 83.0039 16.9373 83.0864 16.9373H85.3019C85.3845 16.9373 85.4257 16.9786 85.4257 17.0611V19.7717C85.4587 19.912 85.533 20.0317 85.6485 20.1307C85.764 20.2297 85.9456 20.2792 86.1931 20.2792H86.6139C86.944 20.2792 87.109 20.6216 87.109 21.3065C87.109 21.6118 87.0678 21.8552 86.9853 22.0368C86.911 22.2183 86.7872 22.3091 86.6139 22.3091C86.3251 22.3091 86.0693 22.272 85.8465 22.1977C85.632 22.1152 85.4298 21.9501 85.2401 21.7026ZM90.2088 16.7393C90.9184 16.8053 91.43 17.0281 91.7435 17.4077C92.0654 17.7873 92.2263 18.3525 92.2263 19.1034V20.1926C92.2263 20.5886 92.1809 20.9228 92.0901 21.1951C92.0076 21.4592 91.8797 21.6778 91.7064 21.8511C91.5414 22.0162 91.3351 22.1358 91.0875 22.2101C90.8483 22.2761 90.5718 22.3091 90.2583 22.3091H86.6194C86.4543 22.3091 86.3305 22.2348 86.248 22.0863C86.1655 21.9295 86.1243 21.6407 86.1243 21.2199C86.1243 20.8733 86.1655 20.6299 86.248 20.4896C86.3223 20.3493 86.4461 20.2792 86.6194 20.2792H88.9091C89.0824 20.2792 89.2186 20.2751 89.3176 20.2668C89.4166 20.2503 89.495 20.2214 89.5528 20.1802C89.6105 20.1389 89.6477 20.0853 89.6642 20.0193C89.6889 19.945 89.7013 19.8501 89.7013 19.7346V19.3633C89.7013 19.1075 89.6394 18.9383 89.5156 18.8558C89.3919 18.7733 89.1814 18.7321 88.8844 18.7321H87.164C87.0814 18.7321 87.0402 18.6908 87.0402 18.6083V17.2715C87.0402 17.2303 87.0526 17.1931 87.0773 17.1601C87.1103 17.1189 87.1351 17.09 87.1516 17.0735L90.0231 13.6821C90.0726 13.6244 90.1262 13.612 90.184 13.645L91.6321 14.8703C91.6982 14.9199 91.7147 14.9776 91.6817 15.0436L90.2088 16.7393ZM94.7642 13.8802C94.6734 13.7234 94.628 13.5418 94.628 13.3356C94.628 12.989 94.7518 12.6961 94.9993 12.4568C95.2469 12.2092 95.6058 12.0855 96.0762 12.0855C96.3815 12.0855 96.6414 12.1432 96.8559 12.2587C97.0787 12.3743 97.2479 12.5022 97.3634 12.6424C97.3964 12.6754 97.3923 12.7084 97.351 12.7414L96.8683 13.3108C96.8436 13.3438 96.8064 13.3438 96.7569 13.3108C96.5671 13.121 96.3773 13.0261 96.1876 13.0261C96.105 13.0261 96.0184 13.055 95.9276 13.1128C95.8451 13.1623 95.8039 13.2613 95.8039 13.4098C95.8039 13.5253 95.8369 13.6244 95.9029 13.7069C95.9689 13.7811 96.039 13.8389 96.1133 13.8802H97.3139C97.3634 13.8802 97.3882 13.909 97.3882 13.9668V14.7342C97.3882 14.792 97.3634 14.8208 97.3139 14.8208H94.3186C94.2691 14.8208 94.2443 14.792 94.2443 14.7342V13.9668C94.2443 13.909 94.2691 13.8802 94.3186 13.8802H94.7642ZM97.1282 20.2792H97.9451C98.1514 20.2792 98.3 20.2338 98.3907 20.1431C98.4897 20.044 98.5392 19.8708 98.5392 19.6232V14.0163C98.5392 13.9338 98.5805 13.8925 98.663 13.8925H100.879C100.961 13.8925 101.002 13.9338 101.002 14.0163V20.7495C101.002 21.2859 100.891 21.682 100.668 21.9378C100.445 22.1853 100.074 22.3091 99.5542 22.3091H93.1551C93.0726 22.3091 93.0314 22.2678 93.0314 22.1853V20.403C93.0314 20.3205 93.0726 20.2792 93.1551 20.2792H94.6652V15.7615C94.6652 15.679 94.7064 15.6377 94.7889 15.6377H97.0045C97.087 15.6377 97.1282 15.679 97.1282 15.7615V20.2792ZM104.701 22.1853C104.701 22.2678 104.66 22.3091 104.578 22.3091H102.362C102.28 22.3091 102.238 22.2678 102.238 22.1853V14.0163C102.238 13.9338 102.28 13.8925 102.362 13.8925H104.578C104.66 13.8925 104.701 13.9338 104.701 14.0163V22.1853Z" fill="white"/>
<path d="M39.7916 39.6388C39.6722 39.6388 39.6124 39.5791 39.6124 39.4597V37.2385C39.6124 37.1191 39.6722 37.0594 39.7916 37.0594H43.0158C43.1352 37.0594 43.195 37.1191 43.195 37.2385V39.4597C43.195 39.5791 43.1352 39.6388 43.0158 39.6388H39.7916ZM37.1405 44.314C37.1883 44.2304 37.2838 44.2005 37.4271 44.2244L40.311 44.923C40.3827 44.9349 40.4245 44.9708 40.4364 45.0305C40.4484 45.0782 40.4424 45.126 40.4185 45.1738C40.311 45.5081 40.2036 45.8485 40.0961 46.1948C40.0006 46.5411 39.9528 46.965 39.9528 47.4666C39.9528 48.1353 40.0782 48.619 40.3289 48.9175C40.5917 49.216 40.9141 49.3653 41.2962 49.3653C41.7619 49.3653 42.0903 49.216 42.2814 48.9175C42.4844 48.619 42.5859 48.1831 42.5859 47.6099V42.0749C42.5859 41.9555 42.6456 41.8958 42.7651 41.8958H45.9714C46.0908 41.8958 46.1505 41.9555 46.1505 42.0749V47.8069C46.1505 48.6906 46.0072 49.419 45.7206 49.9922C45.446 50.5774 45.0758 51.0431 44.61 51.3894C44.1563 51.7357 43.6368 51.9805 43.0517 52.1238C42.4665 52.2671 41.8754 52.3388 41.2783 52.3388C40.6812 52.3388 40.0841 52.2612 39.4871 52.1059C38.9019 51.9626 38.3765 51.7118 37.9108 51.3536C37.445 50.9953 37.0689 50.5177 36.7823 49.9206C36.4957 49.3355 36.3524 48.601 36.3524 47.7174C36.3524 47.2397 36.4061 46.6904 36.5136 46.0694C36.633 45.4484 36.842 44.8633 37.1405 44.314ZM49.5489 51.9984C49.4294 51.9984 49.3697 51.9387 49.3697 51.8193V49.2399C49.3697 49.1205 49.4294 49.0608 49.5489 49.0608H51.5192C51.985 49.0608 52.3432 49.019 52.594 48.9354C52.8448 48.8518 52.9821 48.619 53.006 48.2368H51.5013C50.2236 48.2368 49.2623 47.9442 48.6174 47.3591C47.9726 46.762 47.6501 45.7828 47.6501 44.4214C47.6501 43.5736 47.7755 42.875 48.0263 42.3257C48.2771 41.7764 48.6055 41.3465 49.0115 41.036C49.4294 40.7136 49.9011 40.4926 50.4266 40.3732C50.952 40.2419 51.4834 40.1762 52.0208 40.1762C52.5582 40.1762 53.0896 40.2299 53.615 40.3374C54.1524 40.4449 54.63 40.6538 55.048 40.9643C55.4779 41.2629 55.8242 41.6808 56.0869 42.2182C56.3496 42.7556 56.481 43.4482 56.481 44.2961V48.4876C56.481 49.0369 56.4094 49.5265 56.2661 49.9564C56.1347 50.3983 55.9138 50.7685 55.6033 51.067C55.3048 51.3655 54.9047 51.5924 54.4032 51.7477C53.9016 51.9149 53.2866 51.9984 52.5582 51.9984H49.5489ZM52.0566 43.1138C51.7103 43.1138 51.4536 43.2153 51.2864 43.4183C51.1311 43.6094 51.0535 43.8841 51.0535 44.2423C51.0535 44.4692 51.0834 44.6543 51.1431 44.7976C51.2028 44.929 51.2744 45.0364 51.358 45.12C51.4536 45.1917 51.561 45.2395 51.6805 45.2633C51.7999 45.2872 51.9253 45.2992 52.0566 45.2992H53.006V44.1707C53.006 43.7527 52.9104 43.4721 52.7194 43.3288C52.5403 43.1855 52.3193 43.1138 52.0566 43.1138ZM65.6191 44.6364C65.6788 44.8155 65.7862 44.9708 65.9415 45.1021C66.1087 45.2335 66.3654 45.2992 66.7117 45.2992H67.3207C67.7984 45.2992 68.0372 45.7947 68.0372 46.7859C68.0372 47.2277 67.9775 47.58 67.8581 47.8427C67.7506 48.1055 67.5715 48.2368 67.3207 48.2368C66.8192 48.2368 66.3953 48.1711 66.049 48.0398C65.7146 47.9084 65.4101 47.6397 65.1354 47.2337C64.8966 47.592 64.5801 47.8487 64.1861 48.004C63.792 48.1592 63.3203 48.2368 62.771 48.2368H58.0958C57.9764 48.2368 57.9167 48.1771 57.9167 48.0577V45.4783C57.9167 45.3589 57.9764 45.2992 58.0958 45.2992H60.8185C61.0812 45.2992 61.2842 45.2812 61.4275 45.2454C61.5828 45.2096 61.6962 45.1618 61.7679 45.1021C61.8515 45.0305 61.9052 44.9469 61.9291 44.8513C61.953 44.7439 61.9649 44.6185 61.9649 44.4752V43.9736C61.9649 43.6273 61.8694 43.4004 61.6783 43.293C61.4872 43.1735 61.1887 43.1138 60.7827 43.1138H58.7586C58.6391 43.1138 58.5794 43.0541 58.5794 42.9347V40.3553C58.5794 40.2359 58.6391 40.1762 58.7586 40.1762H62.3411C63.4636 40.1762 64.2876 40.4449 64.813 40.9822C65.3504 41.5077 65.6191 42.3257 65.6191 43.4363V44.6364ZM67.3331 48.2368C67.0942 48.2368 66.9151 48.1532 66.7957 47.986C66.6763 47.8069 66.6166 47.4427 66.6166 46.8934C66.6166 45.8306 66.8554 45.2992 67.3331 45.2992H69.9841C70.4618 45.2992 70.7006 45.8127 70.7006 46.8396C70.7006 47.4248 70.6409 47.8069 70.5215 47.986C70.414 48.1532 70.2349 48.2368 69.9841 48.2368H67.3331ZM70.0094 48.2368C69.7706 48.2368 69.5915 48.1532 69.4721 47.986C69.3527 47.8069 69.2929 47.4427 69.2929 46.8934C69.2929 45.8306 69.5318 45.2992 70.0094 45.2992H72.6605C73.1382 45.2992 73.377 45.8127 73.377 46.8396C73.377 47.4248 73.3173 47.8069 73.1979 47.986C73.0904 48.1532 72.9113 48.2368 72.6605 48.2368H70.0094ZM72.6858 48.2368C72.447 48.2368 72.2679 48.1532 72.1485 47.986C72.029 47.8069 71.9693 47.4427 71.9693 46.8934C71.9693 45.8306 72.2082 45.2992 72.6858 45.2992H75.3369C75.8145 45.2992 76.0534 45.8127 76.0534 46.8396C76.0534 47.4248 75.9937 47.8069 75.8743 47.986C75.7668 48.1532 75.5877 48.2368 75.3369 48.2368H72.6858ZM75.3622 48.2368C75.1234 48.2368 74.9443 48.1532 74.8248 47.986C74.7054 47.8069 74.6457 47.4427 74.6457 46.8934C74.6457 45.8306 74.8845 45.2992 75.3622 45.2992H78.0133C78.4909 45.2992 78.7298 45.8127 78.7298 46.8396C78.7298 47.4248 78.6701 47.8069 78.5506 47.986C78.4432 48.1532 78.264 48.2368 78.0133 48.2368H75.3622ZM78.0386 48.2368C77.7998 48.2368 77.6206 48.1532 77.5012 47.986C77.3818 47.8069 77.3221 47.4427 77.3221 46.8934C77.3221 45.8306 77.5609 45.2992 78.0386 45.2992H80.6896C81.1673 45.2992 81.4062 45.8127 81.4062 46.8396C81.4062 47.4248 81.3464 47.8069 81.227 47.986C81.1196 48.1532 80.9404 48.2368 80.6896 48.2368H78.0386ZM80.715 48.2368C80.4761 48.2368 80.297 48.1532 80.1776 47.986C80.0582 47.8069 79.9985 47.4427 79.9985 46.8934C79.9985 45.8306 80.2373 45.2992 80.715 45.2992H83.366C83.8437 45.2992 84.0825 45.8127 84.0825 46.8396C84.0825 47.4248 84.0228 47.8069 83.9034 47.986C83.7959 48.1532 83.6168 48.2368 83.366 48.2368H80.715ZM83.3914 48.2368C83.1525 48.2368 82.9734 48.1532 82.854 47.986C82.7346 47.8069 82.6749 47.4427 82.6749 46.8934C82.6749 45.8306 82.9137 45.2992 83.3914 45.2992H86.0424C86.5201 45.2992 86.7589 45.8127 86.7589 46.8396C86.7589 47.4248 86.6992 47.8069 86.5798 47.986C86.4723 48.1532 86.2932 48.2368 86.0424 48.2368H83.3914ZM86.0677 48.2368C85.8289 48.2368 85.6498 48.1532 85.5304 47.986C85.411 47.8069 85.3512 47.4427 85.3512 46.8934C85.3512 45.8306 85.5901 45.2992 86.0677 45.2992H88.7188C89.1965 45.2992 89.4353 45.8127 89.4353 46.8396C89.4353 47.4248 89.3756 47.8069 89.2562 47.986C89.1487 48.1532 88.9696 48.2368 88.7188 48.2368H86.0677ZM88.7441 48.2368C88.5053 48.2368 88.3262 48.1532 88.2068 47.986C88.0873 47.8069 88.0276 47.4427 88.0276 46.8934C88.0276 45.8306 88.2665 45.2992 88.7441 45.2992H91.3952C91.8728 45.2992 92.1117 45.8127 92.1117 46.8396C92.1117 47.4248 92.052 47.8069 91.9326 47.986C91.8251 48.1532 91.646 48.2368 91.3952 48.2368H88.7441ZM91.4205 48.2368C91.1817 48.2368 91.0026 48.1532 90.8831 47.986C90.7637 47.8069 90.704 47.4427 90.704 46.8934C90.704 45.8306 90.9428 45.2992 91.4205 45.2992H94.0716C94.5492 45.2992 94.7881 45.8127 94.7881 46.8396C94.7881 47.4248 94.7284 47.8069 94.6089 47.986C94.5015 48.1532 94.3223 48.2368 94.0716 48.2368H91.4205ZM94.0969 48.2368C93.8581 48.2368 93.6789 48.1532 93.5595 47.986C93.4401 47.8069 93.3804 47.4427 93.3804 46.8934C93.3804 45.8306 93.6192 45.2992 94.0969 45.2992H96.7479C97.2256 45.2992 97.4645 45.8127 97.4645 46.8396C97.4645 47.4248 97.4047 47.8069 97.2853 47.986C97.1779 48.1532 96.9987 48.2368 96.7479 48.2368H94.0969ZM96.7733 48.2368C96.5344 48.2368 96.3553 48.1532 96.2359 47.986C96.1165 47.8069 96.0568 47.4427 96.0568 46.8934C96.0568 45.8306 96.2956 45.2992 96.7733 45.2992H99.4243C99.902 45.2992 100.141 45.8127 100.141 46.8396C100.141 47.4248 100.081 47.8069 99.9617 47.986C99.8542 48.1532 99.6751 48.2368 99.4243 48.2368H96.7733ZM99.4497 48.2368C99.2108 48.2368 99.0317 48.1532 98.9123 47.986C98.7929 47.8069 98.7332 47.4427 98.7332 46.8934C98.7332 45.8306 98.972 45.2992 99.4497 45.2992H102.101C102.578 45.2992 102.817 45.8127 102.817 46.8396C102.817 47.4248 102.758 47.8069 102.638 47.986C102.531 48.1532 102.351 48.2368 102.101 48.2368H99.4497ZM102.126 48.2368C101.887 48.2368 101.708 48.1532 101.589 47.986C101.469 47.8069 101.41 47.4427 101.41 46.8934C101.41 45.8306 101.648 45.2992 102.126 45.2992H104.777C105.255 45.2992 105.494 45.8127 105.494 46.8396C105.494 47.4248 105.434 47.8069 105.314 47.986C105.207 48.1532 105.028 48.2368 104.777 48.2368H102.126ZM104.802 48.2368C104.564 48.2368 104.384 48.1532 104.265 47.986C104.146 47.8069 104.086 47.4427 104.086 46.8934C104.086 45.8306 104.325 45.2992 104.802 45.2992H107.453C107.931 45.2992 108.17 45.8127 108.17 46.8396C108.17 47.4248 108.11 47.8069 107.991 47.986C107.883 48.1532 107.704 48.2368 107.453 48.2368H104.802ZM108.571 51.9984C108.452 51.9984 108.392 51.9387 108.392 51.8193V49.5982C108.392 49.4788 108.452 49.419 108.571 49.419H111.796C111.915 49.419 111.975 49.4788 111.975 49.5982V51.8193C111.975 51.9387 111.915 51.9984 111.796 51.9984H108.571ZM107.461 48.2368C107.222 48.2368 107.043 48.195 106.924 48.1114C106.804 48.0278 106.744 47.8607 106.744 47.6099C106.744 47.4666 106.762 47.2636 106.798 47.0009C106.822 46.7381 106.864 46.4814 106.924 46.2306C106.971 45.9798 107.043 45.7649 107.138 45.5858C107.222 45.3947 107.33 45.2992 107.461 45.2992H107.604C107.903 45.2992 108.118 45.2335 108.249 45.1021C108.392 44.9588 108.464 44.708 108.464 44.3498V40.6419C108.464 40.5225 108.524 40.4628 108.643 40.4628H111.849C111.969 40.4628 112.029 40.5225 112.029 40.6419V45.9798C112.029 46.756 111.867 47.3292 111.545 47.6994C111.223 48.0577 110.685 48.2368 109.933 48.2368H107.461Z" fill="white"/>
<path d="M43.1319 69.8568C42.6781 69.8568 42.2362 69.821 41.8063 69.7494C41.3884 69.6896 40.9943 69.5762 40.6241 69.409C40.5286 69.5284 40.4569 69.6658 40.4092 69.821C40.3614 69.9762 40.3375 70.1613 40.3375 70.3763V73.296H36.7729V70.0001C36.7729 69.5702 36.8147 69.218 36.8983 68.9433C36.9819 68.6567 37.0894 68.4238 37.2207 68.2447C37.3521 68.0536 37.4954 67.8984 37.6506 67.779C37.8059 67.6596 37.9492 67.5401 38.0805 67.4207C38.2238 67.3013 38.3433 67.1759 38.4388 67.0446C38.5463 66.9013 38.6179 66.7162 38.6537 66.4893C38.6418 66.3937 38.6358 66.2982 38.6358 66.2027C38.6358 66.1071 38.6358 66.0056 38.6358 65.8982C38.6358 65.0264 38.7672 64.3159 39.0299 63.7666C39.3046 63.2053 39.6568 62.7754 40.0867 62.4769C40.5166 62.1664 41.0003 61.9574 41.5377 61.8499C42.075 61.7305 42.6064 61.6708 43.1319 61.6708C43.6573 61.6708 44.1887 61.7305 44.7261 61.8499C45.2635 61.9574 45.7471 62.1664 46.177 62.4769C46.6069 62.7754 46.9532 63.2053 47.2159 63.7666C47.4906 64.3159 47.6279 65.0264 47.6279 65.8982C47.6279 66.6744 47.5025 67.3192 47.2518 67.8327C47.0129 68.3462 46.6845 68.7522 46.2666 69.0508C45.8486 69.3493 45.365 69.5583 44.8156 69.6777C44.2783 69.7971 43.717 69.8568 43.1319 69.8568ZM43.1319 64.6085C42.8214 64.6085 42.5706 64.6921 42.3795 64.8592C42.2004 65.0264 42.1109 65.319 42.1109 65.737C42.1109 66.2266 42.2064 66.549 42.3975 66.7042C42.5885 66.8475 42.8333 66.9192 43.1319 66.9192C43.4543 66.9192 43.7051 66.8475 43.8842 66.7042C44.0633 66.549 44.1529 66.2266 44.1529 65.737C44.1529 65.2832 44.0574 64.9846 43.8663 64.8413C43.6872 64.6861 43.4424 64.6085 43.1319 64.6085ZM50.1802 54.3742C50.0608 54.3742 50.001 54.3145 50.001 54.1951V53.7114C50.001 53.592 50.0608 53.5323 50.1802 53.5323H54.73C54.8494 53.5323 54.9091 53.592 54.9091 53.7114V54.1951C54.9091 54.3145 54.8494 54.3742 54.73 54.3742H50.1802ZM50.1981 55.5206C50.1981 55.4012 50.2578 55.3415 50.3772 55.3415H50.8429C50.9623 55.3415 51.0221 55.4012 51.0221 55.5206V56.8461C51.0221 57.3238 51.2072 57.5626 51.5773 57.5626C51.9475 57.5626 52.1326 57.3477 52.1326 56.9178V55.5206C52.1326 55.4012 52.1923 55.3415 52.3118 55.3415H52.7775C52.8969 55.3415 52.9566 55.4012 52.9566 55.5206V56.9178C52.9566 57.3477 53.1477 57.5626 53.5298 57.5626C53.7328 57.5626 53.8702 57.5029 53.9418 57.3835C54.0254 57.2522 54.0672 57.073 54.0672 56.8461V55.5206C54.0672 55.4012 54.1269 55.3415 54.2463 55.3415H54.712C54.8315 55.3415 54.8912 55.4012 54.8912 55.5206V56.7924C54.8912 57.0073 54.8673 57.2104 54.8195 57.4014C54.7837 57.5805 54.712 57.7418 54.6046 57.8851C54.4971 58.0284 54.3538 58.1418 54.1747 58.2254C54.0075 58.309 53.7925 58.3508 53.5298 58.3508C53.3268 58.3508 53.1238 58.3209 52.9208 58.2612C52.7297 58.1896 52.5804 58.0881 52.473 57.9567C52.3655 58.0881 52.2401 58.1896 52.0968 58.2612C51.9535 58.3209 51.7684 58.3508 51.5415 58.3508C51.2788 58.3508 51.0639 58.309 50.8967 58.2254C50.7175 58.1418 50.5802 58.0284 50.4847 57.8851C50.3772 57.7418 50.3056 57.5805 50.2697 57.4014C50.222 57.2104 50.1981 57.0073 50.1981 56.7924V55.5206ZM56.5845 66.131C56.6442 66.3102 56.7516 66.4654 56.9069 66.5968C57.0741 66.7281 57.3308 66.7938 57.6771 66.7938H58.2861C58.7638 66.7938 59.0027 67.2894 59.0027 68.2805C59.0027 68.7224 58.9429 69.0747 58.8235 69.3374C58.716 69.6001 58.5369 69.7314 58.2861 69.7314C57.7846 69.7314 57.3607 69.6658 57.0144 69.5344C56.68 69.403 56.3755 69.1344 56.1008 68.7283C55.862 69.0866 55.5455 69.3433 55.1515 69.4986C54.7574 69.6538 54.2857 69.7314 53.7364 69.7314H49.0612C48.9418 69.7314 48.8821 69.6717 48.8821 69.5523V66.9729C48.8821 66.8535 48.9418 66.7938 49.0612 66.7938H51.7839C52.0466 66.7938 52.2496 66.7759 52.3929 66.7401C52.5482 66.7042 52.6616 66.6565 52.7333 66.5968C52.8169 66.5251 52.8706 66.4415 52.8945 66.346C52.9184 66.2385 52.9303 66.1131 52.9303 65.9698V65.4683C52.9303 65.122 52.8348 64.8951 52.6437 64.7876C52.4526 64.6682 52.1541 64.6085 51.7481 64.6085H49.724C49.6045 64.6085 49.5448 64.5488 49.5448 64.4293V61.8499C49.5448 61.7305 49.6045 61.6708 49.724 61.6708H53.3065C54.429 61.6708 55.253 61.9395 55.7784 62.4769C56.3158 63.0023 56.5845 63.8203 56.5845 64.9309V66.131ZM58.2985 69.7314C58.0596 69.7314 57.8805 69.6479 57.7611 69.4807C57.6417 69.3015 57.582 68.9373 57.582 68.388C57.582 67.3252 57.8208 66.7938 58.2985 66.7938H60.9495C61.4272 66.7938 61.666 67.3073 61.666 68.3343C61.666 68.9194 61.6063 69.3015 61.4869 69.4807C61.3794 69.6479 61.2003 69.7314 60.9495 69.7314H58.2985ZM60.9748 69.7314C60.736 69.7314 60.5569 69.6479 60.4375 69.4807C60.3181 69.3015 60.2583 68.9373 60.2583 68.388C60.2583 67.3252 60.4972 66.7938 60.9748 66.7938H63.6259C64.1036 66.7938 64.3424 67.3073 64.3424 68.3343C64.3424 68.9194 64.2827 69.3015 64.1633 69.4807C64.0558 69.6479 63.8767 69.7314 63.6259 69.7314H60.9748ZM63.6512 69.7314C63.4124 69.7314 63.2333 69.6479 63.1139 69.4807C62.9944 69.3015 62.9347 68.9373 62.9347 68.388C62.9347 67.3252 63.1736 66.7938 63.6512 66.7938H66.3023C66.78 66.7938 67.0188 67.3073 67.0188 68.3343C67.0188 68.9194 66.9591 69.3015 66.8397 69.4807C66.7322 69.6479 66.5531 69.7314 66.3023 69.7314H63.6512ZM66.3276 69.7314C66.0888 69.7314 65.9097 69.6479 65.7902 69.4807C65.6708 69.3015 65.6111 68.9373 65.6111 68.388C65.6111 67.3252 65.8499 66.7938 66.3276 66.7938H68.9787C69.4563 66.7938 69.6952 67.3073 69.6952 68.3343C69.6952 68.9194 69.6355 69.3015 69.516 69.4807C69.4086 69.6479 69.2294 69.7314 68.9787 69.7314H66.3276ZM69.004 69.7314C68.7652 69.7314 68.586 69.6479 68.4666 69.4807C68.3472 69.3015 68.2875 68.9373 68.2875 68.388C68.2875 67.3252 68.5263 66.7938 69.004 66.7938H71.6551C72.1327 66.7938 72.3716 67.3073 72.3716 68.3343C72.3716 68.9194 72.3118 69.3015 72.1924 69.4807C72.085 69.6479 71.9058 69.7314 71.6551 69.7314H69.004ZM71.6804 69.7314C71.4415 69.7314 71.2624 69.6479 71.143 69.4807C71.0236 69.3015 70.9639 68.9373 70.9639 68.388C70.9639 67.3252 71.2027 66.7938 71.6804 66.7938H74.3314C74.8091 66.7938 75.0479 67.3073 75.0479 68.3343C75.0479 68.9194 74.9882 69.3015 74.8688 69.4807C74.7613 69.6479 74.5822 69.7314 74.3314 69.7314H71.6804ZM74.3568 69.7314C74.1179 69.7314 73.9388 69.6479 73.8194 69.4807C73.7 69.3015 73.6403 68.9373 73.6403 68.388C73.6403 67.3252 73.8791 66.7938 74.3568 66.7938H77.0078C77.4855 66.7938 77.7243 67.3073 77.7243 68.3343C77.7243 68.9194 77.6646 69.3015 77.5452 69.4807C77.4377 69.6479 77.2586 69.7314 77.0078 69.7314H74.3568ZM77.0331 69.7314C76.7943 69.7314 76.6152 69.6479 76.4958 69.4807C76.3764 69.3015 76.3166 68.9373 76.3166 68.388C76.3166 67.3252 76.5555 66.7938 77.0331 66.7938H79.6842C80.1619 66.7938 80.4007 67.3073 80.4007 68.3343C80.4007 68.9194 80.341 69.3015 80.2216 69.4807C80.1141 69.6479 79.935 69.7314 79.6842 69.7314H77.0331ZM79.7095 69.7314C79.4707 69.7314 79.2916 69.6479 79.1722 69.4807C79.0527 69.3015 78.993 68.9373 78.993 68.388C78.993 67.3252 79.2319 66.7938 79.7095 66.7938H82.3606C82.8383 66.7938 83.0771 67.3073 83.0771 68.3343C83.0771 68.9194 83.0174 69.3015 82.898 69.4807C82.7905 69.6479 82.6114 69.7314 82.3606 69.7314H79.7095ZM82.3859 69.7314C82.1471 69.7314 81.968 69.6479 81.8485 69.4807C81.7291 69.3015 81.6694 68.9373 81.6694 68.388C81.6694 67.3252 81.9082 66.7938 82.3859 66.7938H85.037C85.5146 66.7938 85.7535 67.3073 85.7535 68.3343C85.7535 68.9194 85.6938 69.3015 85.5743 69.4807C85.4669 69.6479 85.2877 69.7314 85.037 69.7314H82.3859ZM90.5077 61.6708C91.1167 61.6708 91.684 61.7305 92.2094 61.8499C92.7468 61.9574 93.2125 62.1365 93.6066 62.3873C94.0126 62.6261 94.329 62.9366 94.5559 63.3188C94.7948 63.689 94.9142 64.1308 94.9142 64.6443C94.9142 65.1458 94.7948 65.5757 94.5559 65.934C94.3171 66.2803 94.0424 66.5669 93.732 66.7938H95.8277C96.0666 66.7938 96.2457 66.9013 96.3651 67.1162C96.4845 67.3312 96.5442 67.7312 96.5442 68.3164C96.5442 68.8179 96.4845 69.1821 96.3651 69.409C96.2576 69.624 96.0785 69.7314 95.8277 69.7314H92.8363C92.4064 69.7314 92.0004 69.7135 91.6183 69.6777C91.2362 69.6419 90.8719 69.5165 90.5256 69.3015C90.1315 69.5165 89.7076 69.6419 89.2538 69.6777C88.812 69.7135 88.4179 69.7314 88.0716 69.7314H85.0444C84.7936 69.7314 84.6145 69.618 84.507 69.3911C84.3876 69.1642 84.3279 68.7761 84.3279 68.2268C84.3279 67.2715 84.5667 66.7938 85.0444 66.7938H87.2835C86.973 66.5669 86.6983 66.2803 86.4595 65.934C86.2206 65.5757 86.1012 65.1458 86.1012 64.6443C86.1012 64.1308 86.2147 63.689 86.4416 63.3188C86.6804 62.9366 86.9969 62.6261 87.3909 62.3873C87.7969 62.1365 88.2627 61.9574 88.7881 61.8499C89.3255 61.7305 89.8987 61.6708 90.5077 61.6708ZM90.5077 63.8203C90.4122 63.8203 90.3107 63.8382 90.2032 63.874C90.0957 63.9099 89.9942 63.9756 89.8987 64.0711C89.8151 64.1547 89.7375 64.2681 89.6658 64.4114C89.6061 64.5547 89.5763 64.7338 89.5763 64.9488C89.5763 65.3906 89.6718 65.719 89.8629 65.934C90.0539 66.137 90.2689 66.3221 90.5077 66.4893C90.7465 66.3221 90.9615 66.137 91.1526 65.934C91.3436 65.719 91.4392 65.3906 91.4392 64.9488C91.4392 64.7338 91.4033 64.5547 91.3317 64.4114C91.272 64.2681 91.1944 64.1547 91.0988 64.0711C91.0152 63.9756 90.9137 63.9099 90.7943 63.874C90.6868 63.8382 90.5913 63.8203 90.5077 63.8203ZM87.785 60.1303C87.6656 60.1303 87.6059 60.0706 87.6059 59.9512V57.7301C87.6059 57.6106 87.6656 57.5509 87.785 57.5509H90.1674C90.2868 57.5509 90.3465 57.6106 90.3465 57.7301V59.9512C90.3465 60.0706 90.2868 60.1303 90.1674 60.1303H87.785ZM91.0272 60.1303C90.9078 60.1303 90.848 60.0706 90.848 59.9512V57.7301C90.848 57.6106 90.9078 57.5509 91.0272 57.5509H93.4095C93.529 57.5509 93.5887 57.6106 93.5887 57.7301V59.9512C93.5887 60.0706 93.529 60.1303 93.4095 60.1303H91.0272ZM95.8378 69.7314C95.599 69.7314 95.4198 69.6479 95.3004 69.4807C95.181 69.3015 95.1213 68.9373 95.1213 68.388C95.1213 67.3252 95.3601 66.7938 95.8378 66.7938H98.4889C98.9665 66.7938 99.2054 67.3073 99.2054 68.3343C99.2054 68.9194 99.1456 69.3015 99.0262 69.4807C98.9188 69.6479 98.7396 69.7314 98.4889 69.7314H95.8378ZM98.5142 69.7314C98.2754 69.7314 98.0962 69.6479 97.9768 69.4807C97.8574 69.3015 97.7977 68.9373 97.7977 68.388C97.7977 67.3252 98.0365 66.7938 98.5142 66.7938H101.165C101.643 66.7938 101.882 67.3073 101.882 68.3343C101.882 68.9194 101.822 69.3015 101.703 69.4807C101.595 69.6479 101.416 69.7314 101.165 69.7314H98.5142ZM106.905 69.8568C106.2 69.8568 105.531 69.7732 104.898 69.6061C104.277 69.4389 103.758 69.1284 103.34 68.6746C103.221 68.9134 103.077 69.1045 102.91 69.2478C102.743 69.3792 102.558 69.4807 102.355 69.5523C102.164 69.624 101.961 69.6717 101.746 69.6956C101.543 69.7195 101.352 69.7314 101.173 69.7314C100.934 69.7314 100.755 69.6299 100.635 69.4269C100.516 69.2239 100.456 68.8537 100.456 68.3164C100.456 67.779 100.516 67.3909 100.635 67.152C100.743 66.9132 100.922 66.7938 101.173 66.7938H101.316C101.579 66.7938 101.823 66.6803 102.05 66.4535C102.277 66.2266 102.409 65.8026 102.444 65.1817C102.492 64.4532 102.659 63.8621 102.946 63.4083C103.233 62.9545 103.585 62.6023 104.003 62.3515C104.421 62.0888 104.887 61.9096 105.4 61.8141C105.914 61.7186 106.415 61.6708 106.905 61.6708C107.43 61.6708 107.962 61.7305 108.499 61.8499C109.036 61.9574 109.52 62.1664 109.95 62.4769C110.38 62.7754 110.726 63.2053 110.989 63.7666C111.263 64.3159 111.401 65.0264 111.401 65.8982C111.401 66.6744 111.275 67.3192 111.025 67.8327C110.786 68.3462 110.457 68.7522 110.039 69.0508C109.621 69.3493 109.138 69.5583 108.588 69.6777C108.051 69.7971 107.49 69.8568 106.905 69.8568ZM106.905 64.6085C106.594 64.6085 106.343 64.6921 106.152 64.8592C105.961 65.0264 105.866 65.319 105.866 65.737C105.866 66.2266 105.961 66.549 106.152 66.7042C106.355 66.8475 106.606 66.9192 106.905 66.9192C107.227 66.9192 107.478 66.8475 107.657 66.7042C107.836 66.549 107.926 66.2266 107.926 65.737C107.926 65.2832 107.83 64.9846 107.639 64.8413C107.46 64.6861 107.215 64.6085 106.905 64.6085Z" fill="white"/>
</svg>
