<svg width="113" height="28" viewBox="0 0 113 28" fill="none" xmlns="http://www.w3.org/2000/svg">
<path d="M52.4004 21.2649C52.4004 21.6147 52.4707 21.8946 52.6819 22.1745H51.9783V23.2939H55.4961V22.1745H53.8075C53.6668 21.9645 53.5965 21.7546 53.5965 21.4747C53.5965 20.985 53.9482 20.775 54.4407 20.775C54.6517 20.775 54.9332 20.775 55.1442 20.8451L55.3553 19.7255C55.0036 19.6556 54.6517 19.5856 54.3 19.5856C53.3853 19.4456 52.5411 20.0754 52.4004 20.985C52.4004 21.1249 52.4004 21.1949 52.4004 21.2649ZM10.1172 10.8394V15.8772C10.1172 18.536 8.85076 19.3757 6.81047 19.3757C4.77018 19.3757 3.43344 18.3262 3.43344 16.2271C3.43344 15.2475 3.6445 14.3379 4.06663 13.4283L1.88563 12.7286C1.32279 13.9181 0.97102 15.2475 0.97102 16.5769C0.97102 19.0958 2.72989 21.6147 6.74011 21.6147C10.1875 21.6147 12.6499 20.0054 12.6499 16.437V10.7695H10.1172V10.8394ZM5.61444 8.18058C5.61444 8.8803 6.17728 9.51 6.88082 9.51H6.95118C7.65473 9.51 8.21757 8.95033 8.28792 8.32052C8.28792 8.25061 8.28792 8.25061 8.28792 8.18058C8.35828 7.48097 7.79544 6.92119 7.09189 6.85116C7.02153 6.85116 7.02153 6.85116 6.95118 6.85116C6.24763 6.78125 5.68479 7.34103 5.61444 8.04064C5.61444 8.11066 5.61444 8.11067 5.61444 8.18058ZM15.3234 4.33228V14.1281C15.3234 16.7868 16.5195 18.0463 19.9668 18.0463H22.0071C23.6956 18.0463 24.6806 17.6264 25.2435 17.0667C25.947 17.8364 27.0023 18.0463 28.1983 18.0463C29.324 18.1162 30.3794 17.7664 31.294 17.0667C32.0678 17.6965 33.0528 18.1162 34.1082 18.0463C35.3042 18.1162 36.4299 17.6965 37.2038 16.7868C37.7666 17.5565 38.7516 18.0463 40.229 18.0463H49.4455C50.6415 12.8686 49.3048 9.09028 44.1689 9.09028C43.1839 9.09028 42.1989 9.23022 41.2843 9.58003L41.8472 11.6791C42.5508 11.4692 43.2543 11.3992 43.9578 11.3992C47.2645 11.3992 47.6163 14.058 47.2645 15.8772H40.229C38.822 15.8772 37.9776 15.2475 37.9776 13.7781V9.30014H35.5153V13.7082C35.5153 15.1776 35.1634 15.8772 33.8267 15.8772C32.7011 15.8772 32.1382 15.3874 32.1382 14.4779V10.9094H29.6758V13.8482C29.6758 15.3874 29.2536 15.9472 27.9169 15.9472C26.9319 15.9472 26.2988 15.5973 26.2988 14.5478V10.9094H23.8364V13.8482C23.8364 15.3874 23.3439 15.9472 22.0775 15.9472H20.0372C18.4893 15.9472 17.8562 15.3874 17.8562 14.198V4.40231L15.3234 4.33228ZM52.4707 18.0463H54.9332V4.33228H52.4707V18.0463Z" fill="#013F6D"/>
<path d="M73.6398 27.061C73.0506 20.551 67.8139 15.4081 61.268 14.8221C61.8571 21.3322 67.0938 26.4751 73.6398 27.061Z" fill="url(#paint0_linear_2377_177)"/>
<path d="M100.216 14.9524C93.6702 15.4732 88.4334 20.6813 87.8444 27.1913C94.3902 26.6054 99.6269 21.4624 100.216 14.9524Z" fill="url(#paint1_linear_2377_177)"/>
<path d="M100.216 12.6738C99.6269 6.16375 94.3902 1.02083 87.8444 0.434937C88.4334 6.94495 93.6702 12.0879 100.216 12.6738Z" fill="url(#paint2_linear_2377_177)"/>
<path d="M99.7579 27.061C106.304 26.4751 111.54 21.3322 112.13 14.8221C105.584 15.343 100.347 20.551 99.7579 27.061Z" fill="url(#paint3_linear_2377_177)"/>
<path d="M73.1816 14.9524C73.7708 21.4624 79.0075 26.6054 85.5534 27.1913C84.9643 20.6813 79.7275 15.5383 73.1816 14.9524Z" fill="url(#paint4_linear_2377_177)"/>
<path d="M73.1816 12.6738C79.7275 12.153 84.9643 6.94495 85.5534 0.434937C79.0075 0.955738 73.7708 6.16375 73.1816 12.6738Z" fill="url(#paint5_linear_2377_177)"/>
<path d="M83.3931 13.7804C83.3931 17.0353 84.5713 20.1602 86.6661 22.5689C91.0518 17.4911 91.0518 10.0696 86.6661 4.99182C84.5713 7.46562 83.3931 10.5905 83.3931 13.7804Z" fill="url(#paint6_linear_2377_177)"/>
<defs>
<linearGradient id="paint0_linear_2377_177" x1="67.4555" y1="27.2956" x2="67.4555" y2="14.1543" gradientUnits="userSpaceOnUse">
<stop stop-color="#064367"/>
<stop offset="1" stop-color="#188F7A"/>
</linearGradient>
<linearGradient id="paint1_linear_2377_177" x1="94.0389" y1="27.2955" x2="94.0389" y2="14.1544" gradientUnits="userSpaceOnUse">
<stop stop-color="#064367"/>
<stop offset="1" stop-color="#188F7A"/>
</linearGradient>
<linearGradient id="paint2_linear_2377_177" x1="94.0389" y1="27.2954" x2="94.0389" y2="14.1542" gradientUnits="userSpaceOnUse">
<stop stop-color="#064367"/>
<stop offset="1" stop-color="#188F7A"/>
</linearGradient>
<linearGradient id="paint3_linear_2377_177" x1="105.943" y1="27.2956" x2="105.943" y2="14.1543" gradientUnits="userSpaceOnUse">
<stop stop-color="#064367"/>
<stop offset="1" stop-color="#188F7A"/>
</linearGradient>
<linearGradient id="paint4_linear_2377_177" x1="79.3719" y1="27.2955" x2="79.3719" y2="14.1544" gradientUnits="userSpaceOnUse">
<stop stop-color="#064367"/>
<stop offset="1" stop-color="#188F7A"/>
</linearGradient>
<linearGradient id="paint5_linear_2377_177" x1="79.3719" y1="27.2954" x2="79.3719" y2="14.1542" gradientUnits="userSpaceOnUse">
<stop stop-color="#064367"/>
<stop offset="1" stop-color="#188F7A"/>
</linearGradient>
<linearGradient id="paint6_linear_2377_177" x1="86.6743" y1="4.99182" x2="86.6743" y2="22.5689" gradientUnits="userSpaceOnUse">
<stop stop-color="#009174"/>
<stop offset="1" stop-color="#003F6A"/>
</linearGradient>
</defs>
</svg>
