<svg width="92" height="42" viewBox="0 0 92 42" fill="none" xmlns="http://www.w3.org/2000/svg">
<path d="M58.3931 0.850342V15.7619H76.286V33.6572H91.1999V0.850342H58.3931Z" fill="#6A4065"/>
<path d="M76.2861 35.3023V33.6584H58.3932V15.762H56.7493V35.3023H76.2861Z" fill="#A0968E"/>
<path d="M76.2861 38.5911V36.9461H55.1043V15.762H53.4604V38.5911H76.2861Z" fill="#A0968E"/>
<path d="M76.2861 41.8788V40.235H51.8166V15.7421H50.1716V41.8788H76.2861Z" fill="#A0968E"/>
<path d="M65.8301 22.9466H61.7053C62.5167 21.9879 63.7104 21.4337 64.9661 21.4337H65.8301L63.3398 18.9433C64.5919 18.8393 65.8266 19.2906 66.7152 20.1791L67.1197 20.5837V17.6385C68.0012 18.3845 68.5391 19.4531 68.6197 20.5965L69.0371 20.1791C69.9257 19.2906 71.1603 18.8381 72.4125 18.9433L69.9222 21.4337H70.785C72.0419 21.4337 73.2344 21.9867 74.0458 22.9466H69.921L70.8213 23.8468C71.7098 24.7354 72.1623 25.97 72.0571 27.2222L68.6303 23.7954V31.2477C67.6715 30.4363 67.1173 29.2425 67.1173 27.9869V23.7954L63.6905 27.2222C63.5865 25.97 64.0389 24.7354 64.9275 23.8468L65.8301 22.9466Z" fill="#6A4065"/>
<path d="M26.1214 36.4875C26.0898 36.4267 26.0582 36.4208 25.9986 36.4536C25.8373 36.5424 25.6642 36.5869 25.4783 36.5775C25.2422 36.5647 25.1147 36.4629 25.0656 36.2361C25.0504 36.1625 25.0399 36.0876 25.0399 36.0128C25.0376 35.2224 25.0399 34.4309 25.0364 33.6406C25.0364 33.5517 25.0656 33.5342 25.1475 33.5353C25.3813 33.54 25.6151 33.5353 25.849 33.5377C25.9121 33.5388 25.9437 33.5272 25.9495 33.4547C25.9612 33.3272 25.9823 33.201 26.0056 33.0759C26.0208 32.9975 26.001 32.9683 25.9168 32.9706C25.6642 32.9753 25.4117 32.9671 25.1592 32.9753C25.0551 32.9788 25.0341 32.9437 25.0364 32.8479C25.0434 32.5883 25.0341 32.3276 25.0411 32.068C25.0446 31.964 25.0037 31.9488 24.916 31.9628C24.7605 31.9874 24.6026 32.0178 24.446 32.0213C24.3232 32.0236 24.3057 32.0715 24.3092 32.1768C24.3162 32.4141 24.3115 32.6514 24.3115 32.8888C24.3115 32.9309 24.3162 32.98 24.2519 32.9718C24.0765 32.9472 23.9046 32.9788 23.7199 32.9239C23.3469 32.8128 22.9728 32.8549 22.6618 33.1378C22.4759 33.3062 22.3625 33.5201 22.2561 33.7738C22.2327 33.5225 22.2082 33.3003 22.1953 33.077C22.1895 32.9823 22.1474 32.9695 22.0679 32.973C21.9358 32.9776 21.8037 32.98 21.6715 32.973C21.5768 32.9671 21.5511 32.9999 21.5523 33.0934C21.5558 33.7902 21.5546 34.487 21.5546 35.1839C21.5546 35.779 21.557 36.3741 21.5523 36.9692C21.5511 37.0627 21.5651 37.1048 21.6727 37.0978C21.8422 37.0873 22.0118 37.0896 22.1813 37.0978C22.2748 37.1025 22.2924 37.0674 22.2924 36.982C22.2889 36.3156 22.2982 35.6492 22.2877 34.9816C22.283 34.6788 22.3602 34.4005 22.4841 34.1328C22.6127 33.8569 22.8056 33.6499 23.1248 33.5996C23.2674 33.5774 23.4101 33.5868 23.5516 33.6195C23.5784 33.6254 23.6205 33.6546 23.6287 33.6137C23.6486 33.5178 23.7187 33.54 23.7784 33.5389C23.914 33.5377 24.0508 33.5447 24.1852 33.5365C24.2835 33.5307 24.3127 33.5576 24.3127 33.6604C24.308 34.4286 24.3103 35.1967 24.3103 35.9649C24.3103 36.0818 24.3139 36.1975 24.3349 36.3133C24.3934 36.6512 24.5453 36.9341 24.8715 37.0732C25.3649 37.2825 25.8431 37.2112 26.2991 36.9411C26.347 36.9131 26.3494 36.8885 26.3225 36.8441C26.2535 36.7248 26.1845 36.6067 26.1214 36.4875Z" fill="#A0968E"/>
<path d="M11.5735 33.1612C11.0742 32.7532 10.243 32.7813 9.7297 33.2139C9.63266 33.2957 9.55316 33.3951 9.45144 33.4956C9.4339 33.3319 9.41636 33.1905 9.40467 33.049C9.39999 32.9859 9.3731 32.9683 9.31231 32.9695C9.16148 32.973 9.01066 32.9742 8.85984 32.9695C8.78267 32.9672 8.76514 32.9964 8.76514 33.0689C8.76631 34.929 8.76631 36.7892 8.76514 38.6493C8.76514 38.7335 8.79553 38.7534 8.87153 38.7428C9.0469 38.7183 9.22111 38.6914 9.39765 38.6809C9.49119 38.675 9.50522 38.64 9.50522 38.5581C9.50171 37.9969 9.50288 37.4357 9.50405 36.8745C9.50405 36.8371 9.49119 36.795 9.52393 36.7564C9.91793 37.1598 10.3985 37.2533 10.9234 37.1469C11.4916 37.0312 11.8295 36.6454 12.0166 36.1227C12.2563 35.4551 12.2422 34.7723 12.0949 34.0872C12.0178 33.7259 11.8669 33.4009 11.5735 33.1612ZM11.3186 35.834C11.2216 36.1777 11.0438 36.4524 10.6744 36.5553C10.2593 36.6711 9.78582 36.5027 9.54147 36.1555C9.50873 36.1087 9.50405 36.0596 9.50405 36.0058C9.50522 35.7007 9.50405 35.3955 9.50405 35.0904C9.50405 34.7852 9.50522 34.4801 9.50288 34.1749C9.50171 34.1071 9.52042 34.0521 9.56368 33.9995C9.76478 33.7482 9.99042 33.5307 10.3248 33.4711C10.7527 33.3951 11.0906 33.5845 11.2543 33.9867C11.349 34.2193 11.3887 34.4649 11.4039 34.7127C11.4262 35.0892 11.4215 35.4668 11.3186 35.834Z" fill="#A0968E"/>
<path d="M15.5802 33.0023C14.978 32.7439 14.2695 32.862 13.803 33.4068C13.7808 33.4337 13.7691 33.4734 13.7177 33.4793C13.7036 33.3425 13.6814 33.2092 13.6779 33.0736C13.6756 32.9859 13.6428 32.9648 13.5633 32.9684C13.4359 32.9742 13.3061 32.9777 13.1787 32.9672C13.0629 32.9578 13.036 32.9952 13.036 33.1098C13.0395 34.9477 13.0384 36.7857 13.0384 38.6236C13.0384 38.6423 13.0396 38.661 13.0384 38.6797C13.0325 38.7335 13.0489 38.7522 13.1074 38.744C13.2898 38.7183 13.4721 38.6914 13.6569 38.6809C13.7562 38.6751 13.7679 38.6353 13.7679 38.55C13.7644 37.9513 13.7656 37.3527 13.7656 36.7307C13.7972 36.7588 13.8112 36.7705 13.8229 36.7833C14.2765 37.2756 15.1312 37.2802 15.6117 36.9844C16.0046 36.7436 16.2267 36.3788 16.3401 35.9486C16.5307 35.233 16.5108 34.5175 16.2817 33.8148C16.1647 33.4512 15.9426 33.1566 15.5802 33.0023ZM15.5755 35.8667C15.4714 36.2256 15.2668 36.4981 14.8751 36.5682C14.4496 36.6454 14.0977 36.5086 13.8241 36.1719C13.782 36.1193 13.7644 36.0643 13.7644 35.9965C13.7679 35.696 13.7656 35.3944 13.7656 35.0939C13.7656 34.7887 13.7668 34.4848 13.7644 34.1796C13.7644 34.1153 13.782 34.0639 13.8194 34.0136C14.0252 33.7435 14.266 33.526 14.6168 33.4652C14.964 33.4045 15.2844 33.5506 15.4574 33.8593C15.5755 34.0697 15.6269 34.3 15.6515 34.5374C15.7017 34.984 15.7029 35.4294 15.5755 35.8667Z" fill="#A0968E"/>
<path d="M43.328 31.4389C43.328 31.4202 43.3268 31.4015 43.328 31.3828C43.3338 31.3255 43.3093 31.3068 43.2508 31.3021C43.0976 31.2893 42.9433 31.2717 42.7913 31.2495C42.5996 31.2215 42.5996 31.218 42.5996 31.4097C42.5996 32.0527 42.5996 32.697 42.5996 33.3657C42.5551 33.326 42.5306 33.3049 42.506 33.2827C42.0945 32.9086 41.6163 32.7858 41.0808 32.932C40.5652 33.0723 40.2589 33.4441 40.0672 33.9187C39.859 34.4379 39.8298 34.9803 39.8941 35.5287C39.9304 35.8327 40.011 36.125 40.1502 36.4009C40.6459 37.3888 41.9635 37.4251 42.547 36.6242C42.5633 36.602 42.5739 36.5692 42.6148 36.5634C42.6335 36.7084 42.6557 36.851 42.6674 36.996C42.6732 37.0673 42.6931 37.0954 42.7679 37.093C42.9106 37.0884 43.0544 37.0848 43.1982 37.0942C43.2987 37.1 43.3303 37.0732 43.3303 36.9668C43.3268 35.123 43.328 33.2815 43.328 31.4389ZM42.6054 34.2742C42.5809 34.5127 42.5996 34.7559 42.5996 34.9967C42.5996 35.2984 42.5996 35.5988 42.5996 35.9005C42.5996 35.9496 42.5984 35.9975 42.5668 36.0396C42.3412 36.3424 42.077 36.5763 41.6724 36.6008C41.3158 36.623 41.0493 36.4921 40.8739 36.1822C40.7219 35.9168 40.6786 35.621 40.6623 35.3241C40.6412 34.9558 40.6447 34.5863 40.7499 34.2262C40.8552 33.8696 41.0364 33.5727 41.4269 33.478C41.7741 33.395 42.0793 33.4967 42.3505 33.7223C42.5259 33.8696 42.63 34.0286 42.6054 34.2742Z" fill="#A0968E"/>
<path d="M3.41841 25.1792C3.17639 24.4204 2.9332 23.6628 2.69469 22.9029C2.67014 22.8234 2.63273 22.7965 2.55205 22.8C2.42812 22.807 2.30302 22.8011 2.17909 22.8011C2.06217 22.8011 1.94408 22.8093 1.82834 22.7988C1.73247 22.7906 1.7009 22.8292 1.67401 22.9146C1.36768 23.8768 1.05786 24.839 0.749198 25.8001C0.504842 26.5612 0.26165 27.3235 0.0137869 28.0834C-0.0154423 28.1735 0.00326952 28.191 0.0921263 28.1875C0.276855 28.1817 0.461582 28.1805 0.646311 28.1875C0.728152 28.191 0.753871 28.1571 0.774916 28.0858C0.887156 27.7 1.00524 27.3165 1.11865 26.9306C1.1397 26.8593 1.17361 26.8394 1.24609 26.8406C1.85757 26.843 2.46787 26.8441 3.07935 26.8394C3.16587 26.8383 3.19509 26.8722 3.21731 26.947C3.32838 27.3293 3.44647 27.7093 3.55637 28.0916C3.57858 28.1676 3.61366 28.1898 3.69082 28.1875C3.87555 28.1817 4.06028 28.1852 4.245 28.1852C4.38063 28.1852 4.3818 28.1852 4.33854 28.0519C4.03105 27.0967 3.72473 26.138 3.41841 25.1792ZM2.86773 26.2338C2.38954 26.2338 1.91018 26.2338 1.43199 26.2338C1.37821 26.2338 1.32677 26.2467 1.35483 26.1531C1.6249 25.2622 1.89148 24.3702 2.16857 23.4442C2.24807 23.7096 2.31705 23.9434 2.3872 24.1761C2.57895 24.8191 2.77069 25.4633 2.96243 26.1064C3.00101 26.2327 3.00101 26.2338 2.86773 26.2338Z" fill="#A0968E"/>
<path d="M3.18933 34.3291C2.88183 34.1397 2.54043 34.031 2.19904 33.9246C1.92194 33.8393 1.6507 33.7399 1.40167 33.5844C0.988955 33.326 1.01467 32.6222 1.42856 32.386C1.70098 32.2305 1.9921 32.2094 2.29258 32.2422C2.63982 32.2808 2.94263 32.4246 3.21504 32.6374C3.27467 32.6841 3.30975 32.69 3.36119 32.6268C3.44888 32.5193 3.54241 32.4152 3.64296 32.3182C3.71077 32.2515 3.69207 32.2176 3.62893 32.1639C3.17763 31.7827 2.65852 31.5991 2.12655 31.6132C1.64953 31.6097 1.34204 31.6845 1.03338 31.8493C0.138967 32.3299 0.0957051 33.6218 0.935167 34.1456C1.22863 34.3291 1.54548 34.4566 1.87284 34.5583C2.13941 34.6413 2.39897 34.736 2.65151 34.8588C3.26766 35.1569 3.18114 36.0244 2.76492 36.3237C2.53459 36.4886 2.2762 36.5564 2.00145 36.5658C1.47415 36.5845 1.01 36.4079 0.600787 36.0829C0.537652 36.0326 0.508421 36.0385 0.460486 36.0958C0.369291 36.2057 0.274593 36.3132 0.172875 36.4149C0.113247 36.4746 0.128444 36.5096 0.184564 36.5576C0.334217 36.685 0.490885 36.8019 0.66626 36.8908C1.29878 37.2112 1.96637 37.2696 2.64449 37.0989C3.31091 36.9317 3.76689 36.5272 3.85809 35.8163C3.93876 35.1943 3.77742 34.6904 3.18933 34.3291Z" fill="#A0968E"/>
<path d="M20.0779 33.292C19.6933 32.9518 19.2338 32.8501 18.7334 32.8817C18.081 32.9238 17.5899 33.2277 17.3012 33.8123C16.9668 34.4881 16.9598 35.1978 17.1573 35.9122C17.2766 36.3436 17.5175 36.6967 17.9056 36.9352C18.2575 37.1503 18.6457 37.2076 19.0479 37.1772C19.6313 37.1328 20.0873 36.865 20.3913 36.3599C20.6391 35.9472 20.7163 35.4913 20.7186 34.9488C20.7245 34.8213 20.7046 34.6261 20.6684 34.4343C20.5854 33.9947 20.4217 33.596 20.0779 33.292ZM19.8289 35.8584C19.622 36.5692 18.793 36.8463 18.2435 36.3833C18.026 36.2009 17.9278 35.9472 17.8776 35.6748C17.784 35.1686 17.7817 34.6635 17.936 34.1677C18.0436 33.824 18.2529 33.5668 18.6247 33.4896C19.1426 33.3821 19.5939 33.5551 19.7997 34.1093C19.9096 34.4063 19.933 34.7173 19.9283 35.0411C19.9341 35.3124 19.9072 35.5895 19.8289 35.8584Z" fill="#A0968E"/>
<path d="M34.4715 24.1738C34.1523 24.0054 33.8074 23.9575 33.452 23.9785C32.8265 24.0171 32.3378 24.293 32.0385 24.8496C31.6784 25.5195 31.6573 26.2338 31.8456 26.9552C32.0701 27.8122 32.6956 28.2822 33.5806 28.2799C34.4084 28.2787 35.0164 27.8485 35.2759 27.0616C35.4899 26.4127 35.4793 25.758 35.2572 25.1114C35.1157 24.7034 34.8609 24.3795 34.4715 24.1738ZM34.5405 26.9307C34.44 27.2919 34.2424 27.5819 33.8507 27.6626C33.2194 27.7935 32.7961 27.5258 32.6231 26.9459C32.5436 26.6805 32.5202 26.4069 32.5272 26.1602C32.5225 25.8094 32.5564 25.4949 32.6675 25.1886C32.9528 24.4029 33.9501 24.4216 34.3078 24.8648C34.482 25.0799 34.5627 25.3312 34.6001 25.599C34.6621 26.0468 34.6621 26.4934 34.5405 26.9307Z" fill="#A0968E"/>
<path d="M15.6245 27.0605C15.8022 26.5262 15.8092 25.9825 15.697 25.4353C15.614 25.032 15.4456 24.6695 15.13 24.3924C14.6611 23.9821 14.1046 23.9061 13.5177 24.0183C12.8559 24.1446 12.4491 24.5725 12.2328 25.191C12.0574 25.6926 12.055 26.2082 12.1357 26.7284C12.2865 27.686 12.9647 28.2788 13.9187 28.2811C14.7523 28.2823 15.3603 27.8497 15.6245 27.0605ZM12.9226 26.7436C12.8407 26.2865 12.8407 25.8293 12.9541 25.378C13.0547 24.977 13.2686 24.6625 13.7082 24.5854C14.2355 24.493 14.6483 24.673 14.8505 25.2109C14.9616 25.5078 14.9826 25.8188 14.9885 26.138C14.9815 26.4408 14.9593 26.7483 14.8517 27.0418C14.6108 27.7035 13.7831 27.9245 13.271 27.4603C13.0605 27.2709 12.9717 27.0149 12.9226 26.7436Z" fill="#A0968E"/>
<path d="M22.9634 28.088C23.472 28.3698 23.9958 28.3511 24.5102 28.0904C24.6902 27.9992 24.8259 27.8519 24.9533 27.6823C24.9662 27.7139 24.9743 27.7291 24.9802 27.7466C25.0994 28.0611 25.3415 28.2155 25.6595 28.2728C25.7331 28.2856 25.7787 28.2716 25.7998 28.1898C25.8278 28.0775 25.8653 27.9664 25.9062 27.8589C25.9284 27.7992 25.9144 27.7724 25.8582 27.7466C25.767 27.7057 25.691 27.6449 25.6478 27.5514C25.5952 27.4391 25.5858 27.3199 25.5847 27.1995C25.5835 26.5295 25.5905 25.8584 25.5788 25.1885C25.5683 24.5735 25.2105 24.1456 24.6107 24.024C23.9735 23.8954 23.3609 24.0263 22.7599 24.2356C22.7108 24.2532 22.7097 24.2765 22.726 24.3186C22.7658 24.4274 22.8032 24.5384 22.8406 24.6483C22.8886 24.7886 22.8874 24.7863 23.03 24.7454C23.4322 24.6273 23.8367 24.5267 24.2623 24.5899C24.5616 24.6343 24.7616 24.8027 24.8282 25.0809C24.8644 25.2329 24.8481 25.3884 24.8586 25.5416C24.8656 25.6491 24.8364 25.6807 24.7241 25.6784C24.3325 25.6725 23.9408 25.6562 23.5538 25.7415C22.9797 25.8678 22.498 26.1846 22.4209 26.8616C22.3671 27.3398 22.5179 27.8413 22.9634 28.088ZM23.8929 26.1987C24.1922 26.1437 24.4938 26.1729 24.7943 26.1659C24.8574 26.1647 24.8563 26.2033 24.8563 26.2478C24.8551 26.3834 24.8563 26.519 24.8563 26.6546C24.8563 26.7072 24.8504 26.761 24.8574 26.8125C24.91 27.1983 24.6821 27.4251 24.3944 27.6063C24.1559 27.756 23.8882 27.7724 23.6205 27.6975C23.3422 27.6204 23.196 27.3889 23.1855 27.0428C23.1727 26.5821 23.4194 26.2852 23.8929 26.1987Z" fill="#A0968E"/>
<path d="M7.54089 32.9683C7.37487 32.9765 7.20885 32.9765 7.04283 32.9683C6.94579 32.9636 6.92475 32.9975 6.92475 33.0887C6.92825 33.9364 6.91773 34.784 6.93293 35.6305C6.93644 35.8573 6.86745 36.028 6.72365 36.1894C6.48981 36.4513 6.21506 36.622 5.85028 36.6126C5.5311 36.6044 5.35689 36.4548 5.2961 36.1414C5.27505 36.0327 5.27388 35.924 5.27388 35.8152C5.27388 34.908 5.27154 33.9995 5.27622 33.0922C5.27622 32.9917 5.24933 32.9625 5.14995 32.9671C4.98393 32.9753 4.81791 32.9742 4.65188 32.9671C4.56537 32.9636 4.53263 32.9858 4.53497 33.0794C4.54198 33.2828 4.53496 33.4863 4.5373 33.6897C4.54432 34.4952 4.51275 35.302 4.55484 36.1075C4.57706 36.5354 4.74308 36.9049 5.16398 37.0744C5.66088 37.2744 6.14608 37.2241 6.58803 36.9026C6.73885 36.7927 6.85108 36.6465 6.97151 36.4676C6.98905 36.6641 7.00775 36.8324 7.01711 37.0008C7.02062 37.0651 7.03114 37.0955 7.1048 37.092C7.25913 37.0861 7.41463 37.0861 7.56896 37.092C7.64262 37.0943 7.65665 37.0651 7.65548 36.9996C7.65197 36.857 7.65431 36.7132 7.65431 36.5705C7.65431 35.4107 7.65314 34.2509 7.65665 33.0899C7.65665 33.0011 7.6391 32.9636 7.54089 32.9683Z" fill="#A0968E"/>
<path d="M39.0735 34.2087C39.0735 34.0847 39.0711 33.9608 39.0501 33.8369C38.9858 33.4639 38.8186 33.1517 38.4573 32.9974C37.9335 32.7741 37.4343 32.8419 36.9748 33.181C36.8415 33.2792 36.7351 33.4054 36.6182 33.5551C36.5972 33.3634 36.5761 33.2044 36.5633 33.043C36.5586 32.9822 36.534 32.9682 36.4791 32.9693C36.3353 32.9717 36.1915 32.9764 36.0488 32.9682C35.9506 32.9623 35.9225 32.9904 35.9225 33.0909C35.9272 33.9082 35.9249 34.7254 35.9249 35.5439C35.9249 36.0256 35.9261 36.5084 35.9237 36.9901C35.9237 37.0685 35.9436 37.0942 36.0243 37.0918C36.1938 37.086 36.3645 37.0837 36.5329 37.093C36.6369 37.0989 36.6556 37.0626 36.6556 36.9667C36.6521 36.1074 36.658 35.2492 36.6498 34.3899C36.6486 34.2204 36.6942 34.0871 36.7983 33.9573C37.045 33.651 37.3291 33.4277 37.7535 33.4475C38.0458 33.4616 38.2352 33.603 38.3053 33.886C38.3684 34.142 38.3439 34.4028 38.3451 34.6623C38.3474 35.4351 38.3474 36.2068 38.3439 36.9796C38.3439 37.0685 38.3661 37.0965 38.4561 37.093C38.614 37.086 38.773 37.0837 38.9308 37.093C39.0407 37.0989 39.0758 37.0743 39.0758 36.9539C39.0699 36.0396 39.0723 35.1241 39.0735 34.2087Z" fill="#A0968E"/>
<path d="M39.7258 25.4727C39.7258 25.3149 39.7293 25.157 39.7071 24.9992C39.6474 24.5561 39.4487 24.2077 39.0091 24.0557C38.5777 23.9072 38.1544 23.9493 37.7592 24.1878C37.5675 24.3035 37.4097 24.459 37.2647 24.6671C37.246 24.4731 37.2273 24.3129 37.2167 24.1515C37.2121 24.0896 37.191 24.0662 37.1279 24.0674C36.9888 24.0709 36.8485 24.0744 36.7093 24.0662C36.61 24.0603 36.5749 24.0861 36.576 24.1936C36.5819 24.7279 36.5784 25.2634 36.5784 25.7977C36.5784 26.5589 36.5796 27.3188 36.5772 28.0799C36.5772 28.1618 36.5948 28.1934 36.6824 28.1887C36.852 28.1817 37.0215 28.1805 37.191 28.1887C37.2892 28.1934 37.3079 28.1583 37.3068 28.0671C37.3033 27.1668 37.3044 26.2666 37.3056 25.3663C37.3056 25.3254 37.2951 25.2833 37.3196 25.2447C37.5371 24.9068 37.7861 24.6063 38.2176 24.5526C38.6572 24.4976 38.9459 24.6706 38.9787 25.1465C38.9892 25.3043 38.9939 25.4622 38.9939 25.62C38.9951 26.4373 38.9962 27.2545 38.9927 28.0718C38.9927 28.1594 39.0149 28.1898 39.1061 28.1863C39.2721 28.1793 39.4382 28.1793 39.6042 28.1863C39.6966 28.1898 39.7258 28.1641 39.7258 28.0682C39.7234 27.2054 39.7258 26.339 39.7258 25.4727Z" fill="#A0968E"/>
<path d="M34.8165 36.4114C34.8165 35.3042 34.8153 34.197 34.8188 33.0887C34.8188 32.9963 34.7989 32.9636 34.7019 32.9683C34.5405 32.9764 34.3769 32.9776 34.2155 32.9683C34.1091 32.9624 34.0846 32.9987 34.0857 33.1004C34.0893 33.9936 34.0881 34.8857 34.0881 35.7789C34.0881 35.8315 34.0939 35.8865 34.0647 35.9333C33.8496 36.277 33.5853 36.5646 33.1551 36.6067C32.6757 36.6523 32.498 36.4594 32.4442 36.0888C32.4279 35.9777 32.4255 35.8631 32.4255 35.7509C32.4244 34.8623 32.4232 33.9726 32.4267 33.084C32.4267 32.9951 32.4021 32.9659 32.3121 32.9706C32.1426 32.9776 31.9731 32.9776 31.8035 32.9706C31.7123 32.9671 31.6913 32.9975 31.6913 33.0852C31.6948 33.9211 31.6936 34.7571 31.6925 35.5942C31.6925 35.7859 31.6901 35.9777 31.7147 36.1694C31.7626 36.5518 31.9134 36.8733 32.2712 37.0592C32.7131 37.2907 33.3889 37.2065 33.7759 36.8838C33.9104 36.7716 34.0133 36.6348 34.1302 36.4746C34.1489 36.6698 34.1711 36.837 34.1781 37.0054C34.1816 37.0837 34.2132 37.0966 34.281 37.0954C34.4236 37.0919 34.5674 37.0896 34.7112 37.0966C34.7943 37.1001 34.8223 37.079 34.82 36.9914C34.8118 36.7961 34.8165 36.6032 34.8165 36.4114Z" fill="#A0968E"/>
<path d="M31.3312 31.7043C30.4485 31.7055 29.5657 31.7066 28.683 31.7031C28.586 31.7031 28.5661 31.7335 28.5661 31.8235C28.5696 32.6829 28.5684 33.5411 28.5684 34.4004C28.5684 35.2515 28.5708 36.1027 28.5649 36.9539C28.5638 37.0743 28.6 37.0988 28.7099 37.0918C28.8713 37.0825 29.0349 37.0836 29.1963 37.0918C29.2945 37.0965 29.3237 37.0708 29.3226 36.9691C29.3179 36.2605 29.3226 35.5532 29.3179 34.8447C29.3167 34.7441 29.3471 34.7172 29.4453 34.7184C29.9469 34.7231 30.4485 34.7172 30.95 34.7231C31.0635 34.7242 31.0927 34.6903 31.0833 34.5839C31.074 34.4717 31.0751 34.3571 31.0833 34.2449C31.0903 34.1525 31.0634 34.1233 30.9676 34.1245C30.4625 34.1291 29.9562 34.1233 29.4512 34.1291C29.3378 34.1303 29.3155 34.0964 29.3167 33.99C29.3226 33.4697 29.3214 32.9506 29.3167 32.4303C29.3155 32.3286 29.3413 32.2959 29.4477 32.2971C30.0474 32.3017 30.6472 32.2971 31.247 32.3017C31.3347 32.3029 31.3674 32.2725 31.3745 32.1895C31.3861 32.0621 31.3955 31.9334 31.4271 31.8107C31.4575 31.7066 31.413 31.7043 31.3312 31.7043Z" fill="#A0968E"/>
<path d="M7.24404 26.0561C7.03359 25.9427 6.81729 25.8515 6.58814 25.7872C6.32741 25.7147 6.05967 25.6621 5.82116 25.5265C5.64228 25.4248 5.5429 25.2739 5.55342 25.0647C5.56394 24.8601 5.67619 24.7221 5.85858 24.6391C6.02694 24.5619 6.20699 24.5444 6.38938 24.5537C6.72493 24.5713 7.03008 24.6847 7.30951 24.8659C7.37148 24.9057 7.39486 24.8916 7.42877 24.8367C7.4919 24.7338 7.55854 24.6332 7.6322 24.5385C7.68598 24.4684 7.67663 24.431 7.60414 24.3795C7.13648 24.0487 6.61268 23.9341 6.05031 23.9855C5.74633 24.0136 5.46457 24.1141 5.21436 24.2977C4.6216 24.7326 4.66135 25.6399 5.31141 26.0187C5.53823 26.1508 5.78141 26.2397 6.03278 26.3075C6.25142 26.366 6.46888 26.4256 6.67348 26.5226C6.8512 26.6068 6.99267 26.7226 7.02423 26.933C7.07918 27.2896 6.92135 27.5492 6.56826 27.6392C6.03278 27.7771 5.53705 27.6649 5.08575 27.3551C5.01092 27.3036 4.97819 27.3106 4.92675 27.3785C4.85426 27.4743 4.77476 27.5667 4.68824 27.6497C4.6099 27.7245 4.62861 27.7654 4.70577 27.8227C5.13603 28.1443 5.62123 28.2869 6.15437 28.2799C6.17659 28.2799 6.1988 28.2799 6.22219 28.2799C6.60217 28.2764 6.95993 28.1969 7.2873 27.9934C7.98178 27.562 7.98763 26.4548 7.24404 26.0561Z" fill="#A0968E"/>
<path d="M43.2122 26.0561C43.0018 25.9426 42.7855 25.8503 42.5563 25.7871C42.3026 25.7158 42.043 25.6644 41.808 25.5381C41.6198 25.4364 41.5099 25.2844 41.5204 25.0658C41.5309 24.8448 41.6607 24.7092 41.8571 24.6262C41.9846 24.5724 42.119 24.5583 42.2547 24.5548C42.6206 24.5467 42.9515 24.6624 43.2555 24.8553C43.3303 24.9033 43.3654 24.8951 43.4086 24.8202C43.4647 24.7232 43.529 24.6285 43.598 24.5396C43.6518 24.4695 43.6436 24.4321 43.57 24.3806C43.1023 24.0498 42.5785 23.9352 42.0161 23.9866C41.739 24.0123 41.4795 24.0989 41.2433 24.252C40.5675 24.6928 40.6131 25.648 41.2948 26.0315C41.5169 26.1566 41.7531 26.2408 41.9963 26.3086C42.2617 26.3823 42.5306 26.4442 42.7644 26.5974C43.0427 26.7798 43.0894 27.2077 42.8591 27.4485C42.7071 27.6075 42.5107 27.6683 42.3003 27.687C41.8314 27.7291 41.4035 27.6157 41.0223 27.3375C40.9732 27.3012 40.9487 27.3106 40.9136 27.3538C40.8353 27.4509 40.7523 27.5432 40.6693 27.6356C40.5699 27.7455 40.5675 27.7467 40.6891 27.8355C41.1135 28.15 41.5941 28.2868 42.0419 28.281C42.5247 28.2845 42.9106 28.2097 43.2613 27.9875C43.9464 27.5561 43.957 26.4547 43.2122 26.0561Z" fill="#A0968E"/>
<path d="M10.8228 28.0168C11.5535 27.5948 11.5769 26.4537 10.8029 26.0468C10.5434 25.9112 10.2745 25.8106 9.99154 25.7416C9.78693 25.6914 9.58467 25.6317 9.3976 25.5288C9.2117 25.4271 9.11466 25.2728 9.12752 25.0588C9.13921 24.8519 9.25613 24.7186 9.43852 24.6379C9.61039 24.5608 9.79395 24.5456 9.98101 24.5561C10.3131 24.5748 10.6112 24.6964 10.8895 24.8694C10.9374 24.8987 10.9619 24.901 10.9935 24.8484C11.0648 24.7326 11.1397 24.6204 11.2203 24.5105C11.2601 24.4555 11.2472 24.4322 11.197 24.3959C10.8813 24.1679 10.5317 24.0253 10.1447 23.9879C9.68522 23.9435 9.23976 23.9891 8.84342 24.2568C8.19336 24.6952 8.20154 25.5791 8.85979 26.0035C9.08777 26.1508 9.34032 26.2362 9.59987 26.3063C9.83253 26.3695 10.064 26.4338 10.2815 26.5413C10.5095 26.6536 10.6124 26.8348 10.6054 27.0873C10.5983 27.3352 10.4721 27.4954 10.2569 27.5959C10.1435 27.6485 10.0231 27.6778 9.89801 27.6871C9.43619 27.7234 9.01528 27.6158 8.63998 27.3434C8.58269 27.3025 8.55346 27.3118 8.51254 27.3621C8.43771 27.4556 8.35705 27.5457 8.27754 27.6368C8.1805 27.7468 8.17933 27.7468 8.30092 27.8368C8.72533 28.1513 9.20703 28.2869 9.69106 28.2799C10.1622 28.2834 10.5258 28.1887 10.8228 28.0168Z" fill="#A0968E"/>
<path d="M29.1063 27.9267C29.042 27.8203 28.9765 27.7151 28.9215 27.6028C28.883 27.5245 28.8456 27.5233 28.7742 27.5608C28.6234 27.6414 28.4597 27.6917 28.2867 27.6812C28.1066 27.6718 27.9546 27.6145 27.8857 27.4263C27.8447 27.3152 27.8307 27.1983 27.8295 27.0826C27.8272 26.2992 27.8295 25.5159 27.826 24.7314C27.826 24.6495 27.8529 24.6308 27.9289 24.632C28.1663 24.6367 28.4048 24.6308 28.6421 24.6355C28.7111 24.6367 28.7356 24.6109 28.7438 24.549C28.7602 24.4145 28.7766 24.2801 28.7988 24.1468C28.8105 24.0801 28.7883 24.0649 28.724 24.0649C28.4714 24.0685 28.2189 24.0614 27.9663 24.0685C27.8599 24.072 27.8225 24.0451 27.826 23.9328C27.8342 23.6698 27.8295 23.4055 27.8284 23.1413C27.8284 23.1015 27.8471 23.0431 27.7676 23.0536C27.5735 23.0782 27.3794 23.1027 27.1853 23.1238C27.1117 23.132 27.0976 23.1694 27.0988 23.236C27.1023 23.4769 27.0965 23.7177 27.1023 23.9597C27.1047 24.0416 27.086 24.072 26.9971 24.0685C26.8206 24.0614 26.6428 24.0685 26.4651 24.0649C26.4008 24.0638 26.3786 24.0837 26.3798 24.1491C26.3833 24.2812 26.3844 24.4134 26.3798 24.5443C26.3774 24.6133 26.3997 24.6355 26.4698 24.6343C26.6475 24.6297 26.8241 24.6367 27.0018 24.6308C27.0824 24.6285 27.1023 24.6542 27.1023 24.7325C27.0988 25.1394 27.1012 25.5463 27.1012 26.0455C27.1164 26.4197 27.0708 26.8873 27.1245 27.3526C27.1701 27.7478 27.3502 28.0635 27.7407 28.198C28.2072 28.3581 28.6608 28.2973 29.0864 28.0413C29.1425 28.0074 29.1367 27.9758 29.1063 27.9267Z" fill="#A0968E"/>
<path d="M18.4388 28.2809C18.8842 28.2891 19.2829 28.1547 19.6418 27.8916C19.7026 27.8472 19.7178 27.8144 19.6664 27.7501C19.5869 27.6496 19.5132 27.5444 19.4466 27.4356C19.401 27.3608 19.3636 27.3643 19.2946 27.4087C19.104 27.5327 18.8982 27.6203 18.6703 27.6566C18.171 27.7373 17.7513 27.5034 17.5689 27.0346C17.4882 26.8288 17.459 26.6137 17.4438 26.3951C17.4169 25.9859 17.4356 25.5802 17.5923 25.1967C17.7384 24.8389 17.9956 24.6144 18.3978 24.5829C18.7275 24.5571 19.0245 24.646 19.2911 24.8331C19.3566 24.8787 19.3846 24.8716 19.4279 24.8085C19.5004 24.7033 19.5787 24.6016 19.6617 24.5045C19.7178 24.439 19.7026 24.4063 19.6383 24.356C19.2654 24.0696 18.8421 23.9585 18.378 23.9772C17.7314 24.0029 17.2427 24.2929 16.9446 24.8646C16.5938 25.5369 16.5739 26.2524 16.754 26.9738C16.9621 27.8051 17.5829 28.2763 18.4388 28.2809Z" fill="#A0968E"/>
<path d="M30.494 24.0673C30.321 24.0708 30.1468 24.0743 29.9737 24.0661C29.8802 24.0626 29.8533 24.0883 29.8545 24.1842C29.8592 24.8272 29.8568 25.4714 29.8568 26.1145C29.8568 26.7657 29.8592 27.4169 29.8545 28.0682C29.8533 28.171 29.8849 28.1944 29.9819 28.1909C30.155 28.1827 30.328 28.1863 30.5022 28.1898C30.5665 28.1909 30.5864 28.1699 30.5864 28.1067C30.5852 26.7891 30.5852 25.4726 30.5864 24.155C30.5852 24.0825 30.5607 24.0649 30.494 24.0673Z" fill="#A0968E"/>
<path d="M21.3033 24.0673C21.1302 24.0708 20.956 24.0731 20.783 24.0661C20.6906 24.0626 20.6614 24.0883 20.6626 24.1842C20.6672 24.8284 20.6649 25.4714 20.6649 26.1157C20.6649 26.7704 20.6661 27.4251 20.6637 28.081C20.6637 28.1629 20.6813 28.1944 20.7689 28.1909C20.9502 28.1839 21.1302 28.1863 21.3114 28.1898C21.3757 28.1909 21.3956 28.1699 21.3956 28.1067C21.3944 26.7891 21.3944 25.4714 21.3956 24.1538C21.3956 24.079 21.3676 24.0661 21.3033 24.0673Z" fill="#A0968E"/>
<path d="M21.0214 22.0961C20.7256 22.0949 20.514 22.296 20.5105 22.5825C20.5082 22.8666 20.7198 23.0758 21.0144 23.0758C21.3137 23.077 21.5277 22.8771 21.5288 22.5941C21.5312 22.2983 21.3266 22.0972 21.0214 22.0961Z" fill="#A0968E"/>
<path d="M30.2157 23.0759C30.515 23.0747 30.7197 22.8771 30.7197 22.586C30.7197 22.2913 30.5209 22.0996 30.2169 22.0996C29.9106 22.1008 29.699 22.3019 29.7013 22.5895C29.7037 22.8736 29.9188 23.0759 30.2157 23.0759Z" fill="#A0968E"/>
<path d="M1.31753 6.11246C1.62619 5.80029 2.0506 5.64479 2.58959 5.64479C3.12857 5.64479 3.55298 5.80263 3.86164 6.11947C4.1703 6.43631 4.3258 6.88644 4.3258 7.46986C4.3258 7.86504 4.40297 8.16668 4.55613 8.37479C4.70929 8.5829 4.90454 8.68696 5.14188 8.68696H5.38623C5.42598 8.68696 5.46223 8.69164 5.4938 8.70216C5.52537 8.71151 5.54173 8.74191 5.54173 8.79101V9.20607C5.54173 9.26102 5.49029 9.28791 5.38623 9.28791H5.1337C5.02029 9.28791 4.90922 9.26687 4.79931 9.22478C4.69058 9.18269 4.59003 9.12423 4.49884 9.05057C4.40764 8.97691 4.32814 8.89157 4.26149 8.79453C4.19485 8.69865 4.14458 8.59343 4.1095 8.47885C3.97154 8.74542 3.77395 8.94768 3.52025 9.08331C3.26537 9.21893 2.95553 9.28791 2.58959 9.28791H1.60982C1.45199 9.28791 1.31519 9.30779 1.20178 9.34754C1.08837 9.38729 0.994841 9.44107 0.923522 9.51122C0.852203 9.5802 0.798423 9.65971 0.764517 9.74856C0.729442 9.83742 0.713073 9.92862 0.713073 10.0233V11.0545H0.0899048V10.0303C0.0899048 9.62931 0.193959 9.31948 0.402071 9.09968C0.610182 8.87987 0.938719 8.74776 1.38885 8.70333C1.3491 8.66825 1.3 8.60512 1.24037 8.51392C1.18074 8.42273 1.12345 8.31867 1.06616 8.20176C1.00887 8.08601 0.959767 7.96324 0.917677 7.83464C0.875587 7.70603 0.854538 7.58444 0.854538 7.47103C0.854538 6.87592 1.00887 6.42345 1.31753 6.11246ZM1.80741 6.59064C1.60748 6.81045 1.50694 7.10391 1.50694 7.46986C1.50694 7.65342 1.53383 7.81944 1.58878 7.97026C1.64373 8.12108 1.71856 8.25086 1.8156 8.3596C1.91147 8.46833 2.02605 8.5525 2.15699 8.61213C2.28794 8.67176 2.43292 8.70099 2.59076 8.70099C2.9076 8.70099 3.16715 8.59694 3.36942 8.38882C3.57168 8.18071 3.67341 7.87439 3.67341 7.46869C3.67341 7.06299 3.57286 6.76017 3.37293 6.56024C3.173 6.36032 2.91228 6.25977 2.59076 6.25977C2.26923 6.26094 2.00734 6.37084 1.80741 6.59064ZM6.86991 8.65656C6.8208 8.60746 6.76468 8.53731 6.70272 8.44845C6.64075 8.35959 6.58346 8.25671 6.53201 8.14096C6.48057 8.02521 6.43731 7.90011 6.40224 7.76683C6.36716 7.63354 6.3508 7.50026 6.3508 7.3658C6.3508 7.09923 6.39055 6.85838 6.47005 6.6456C6.54956 6.43281 6.66063 6.25275 6.80443 6.10427C6.94824 5.95579 7.12011 5.84237 7.32004 5.76287C7.51997 5.68337 7.74211 5.64362 7.98413 5.64362C8.22614 5.64362 8.43425 5.68804 8.60729 5.7769C8.78032 5.86576 8.92648 5.98151 9.04456 6.12181C9.16382 6.26328 9.25618 6.42228 9.32282 6.6C9.38947 6.77771 9.4374 6.95659 9.4678 7.13431H8.85983C8.84463 7.0209 8.81424 6.91216 8.76747 6.80811C8.7207 6.70405 8.65873 6.61169 8.58157 6.52985C8.5044 6.448 8.41554 6.3837 8.315 6.33693C8.21328 6.29017 8.10338 6.26678 7.9853 6.26678C7.86604 6.26678 7.74912 6.28783 7.63338 6.32992C7.51763 6.37201 7.41357 6.43748 7.3212 6.52634C7.23001 6.61519 7.15635 6.72861 7.10257 6.86774C7.04762 7.0057 7.02073 7.17172 7.02073 7.36463C7.02073 7.55755 7.04529 7.73526 7.09439 7.89894C7.1435 8.06263 7.21482 8.20176 7.30601 8.31867C7.39721 8.43442 7.50594 8.52562 7.63221 8.58992C7.75848 8.65423 7.89527 8.68579 8.04376 8.68579H9.52041V9.28674H5.3874C5.28335 9.28674 5.2319 9.25985 5.2319 9.2049V8.78985C5.2319 8.74074 5.24827 8.71034 5.27984 8.70099C5.31141 8.69164 5.34765 8.68579 5.3874 8.68579H6.87108V8.65656H6.86991ZM10.2219 8.68696H12.3732V7.74461C12.3732 7.5669 12.3521 7.39386 12.31 7.2255C12.268 7.05714 12.2001 6.90983 12.1054 6.78356C12.0119 6.65729 11.8927 6.55557 11.7488 6.47957C11.605 6.40241 11.432 6.36499 11.2297 6.36499H10.5469V5.77106H11.1187C11.3911 5.77106 11.6401 5.80847 11.8681 5.88213C12.0961 5.95579 12.2937 6.07387 12.462 6.23405C12.6304 6.39422 12.7613 6.60117 12.8549 6.85371C12.9484 7.10625 12.9963 7.41023 12.9963 7.76683V9.28791H10.2219V8.68696ZM17.9489 9.16515C17.7432 9.08331 17.5701 8.96639 17.4298 8.81323C17.2884 8.66007 17.1796 8.47651 17.1036 8.26372C17.0265 8.05093 16.989 7.81359 16.989 7.5517C16.989 7.30384 17.0124 7.06533 17.0592 6.83617C17.106 6.60584 17.1913 6.40358 17.3153 6.2282C17.4392 6.05283 17.6029 5.91136 17.8086 5.80496C18.0144 5.69857 18.2775 5.64595 18.599 5.64595C18.9158 5.64595 19.1801 5.6974 19.3929 5.80146C19.6056 5.90551 19.7763 6.054 19.905 6.24691C20.0336 6.43982 20.1236 6.67482 20.1762 6.95192C20.2276 7.22901 20.2545 7.54351 20.2545 7.89427C20.2545 8.473 20.2043 8.97925 20.1025 9.41185C20.0008 9.84444 19.8418 10.2045 19.6244 10.491C19.4069 10.7774 19.1251 10.9926 18.779 11.1364C18.433 11.2802 18.0144 11.3515 17.5257 11.3515C17.0358 11.3515 16.6243 11.2825 16.2899 11.1434C15.9555 11.0054 15.6878 10.8102 15.4843 10.5611C15.2821 10.3109 15.1348 10.0093 15.0424 9.6562C14.9512 9.30311 14.9021 8.91027 14.8974 8.48002H15.4832C15.4832 8.8904 15.5241 9.23881 15.6059 9.52642C15.6878 9.81287 15.8117 10.0455 15.9766 10.2232C16.1426 10.401 16.3554 10.5307 16.6149 10.6126C16.8745 10.6944 17.182 10.7353 17.5386 10.7353C18.0974 10.7353 18.5476 10.6102 18.8889 10.3612C19.2303 10.111 19.4501 9.75441 19.5495 9.28908H18.6516C18.3874 9.28791 18.1535 9.24699 17.9489 9.16515ZM19.6068 7.82645C19.6068 7.31669 19.5332 6.9297 19.3847 6.66547C19.2362 6.40124 18.9766 6.26912 18.606 6.26912C18.4178 6.26912 18.2634 6.3042 18.1419 6.37318C18.0203 6.44216 17.9244 6.53569 17.8531 6.65144C17.7817 6.76719 17.7303 6.90398 17.7011 7.05948C17.6718 7.21498 17.6566 7.37983 17.6566 7.55287C17.6566 7.92934 17.7373 8.21228 17.8975 8.40285C18.0577 8.59343 18.309 8.68813 18.6504 8.68813H19.608V7.82645H19.6068ZM18.3745 3.9834V4.85092H17.7443V3.9834H18.3745ZM19.6442 3.9834V4.85092H19.014V3.9834H19.6442ZM22.4993 10.408C22.6572 10.3729 22.7975 10.3121 22.9191 10.2221C23.0407 10.1332 23.1412 10.0128 23.2231 9.86197C23.3049 9.71115 23.3704 9.51941 23.4195 9.28674H22.552C22.2901 9.28674 22.0574 9.24231 21.854 9.15346C21.6517 9.0646 21.481 8.94184 21.3419 8.78634C21.2039 8.63084 21.0975 8.44728 21.0227 8.23683C20.949 8.02638 20.9116 7.79839 20.9116 7.55053C20.9116 7.30267 20.9397 7.06416 20.997 6.835C21.0542 6.60467 21.1466 6.40241 21.2752 6.22703C21.4038 6.05166 21.5722 5.91019 21.7803 5.80379C21.9884 5.6974 22.2456 5.64479 22.552 5.64479C22.8583 5.64479 23.1155 5.69389 23.3236 5.79327C23.5317 5.89265 23.7001 6.03646 23.8275 6.22703C23.9561 6.41761 24.0473 6.65027 24.1023 6.92386C24.1572 7.19861 24.1841 7.51078 24.1841 7.8627C24.1841 8.46599 24.1444 8.97107 24.0649 9.37677C23.9853 9.78247 23.8602 10.1098 23.6907 10.36C23.5212 10.6102 23.3014 10.788 23.0336 10.8943C22.7671 11.0007 22.4456 11.0534 22.0691 11.0534C21.965 11.0534 21.8762 11.0487 21.8025 11.0382C21.7289 11.0288 21.6646 11.0159 21.6096 11.0007C21.55 10.9809 21.5009 10.961 21.4611 10.9411V10.3402C21.5301 10.3752 21.6096 10.4033 21.6985 10.4255C21.7873 10.4477 21.8738 10.4594 21.958 10.4594C22.1603 10.4594 22.3403 10.4431 22.4993 10.408ZM23.285 6.64676C23.1213 6.39422 22.8793 6.26795 22.5578 6.26795C22.3894 6.26795 22.2445 6.29952 22.124 6.36383C22.0024 6.42813 21.9019 6.51699 21.8201 6.6304C21.7382 6.7438 21.6774 6.87943 21.6388 7.03493C21.5991 7.19043 21.5792 7.36229 21.5792 7.55053C21.5792 8.30698 21.9031 8.68579 22.5508 8.68579H23.5001C23.5095 8.55718 23.5177 8.42273 23.5224 8.28126C23.527 8.13979 23.5294 7.9878 23.5294 7.82528C23.5305 7.29214 23.4487 6.8993 23.285 6.64676ZM28.9122 8.70216C28.945 8.71151 28.9602 8.74191 28.9602 8.79101V9.20607C28.9602 9.26102 28.9087 9.28791 28.8047 9.28791H28.4481C28.3791 9.28791 28.3054 9.27622 28.2294 9.25401C28.1523 9.23179 28.0786 9.19906 28.0073 9.15813C27.936 9.11604 27.8728 9.06577 27.8179 9.00614C27.7629 8.94652 27.722 8.87987 27.6916 8.80621H27.6624C27.6577 8.86117 27.639 8.93248 27.6063 9.02134C27.5747 9.1102 27.5233 9.19905 27.4543 9.28791H24.8868V8.68696H27.038V7.74461C27.038 7.5669 27.017 7.39386 26.9749 7.2255C26.9328 7.05714 26.865 6.90983 26.7715 6.78356C26.6779 6.65729 26.5587 6.55557 26.4149 6.47957C26.2711 6.40241 26.098 6.36499 25.8958 6.36499H25.213V5.77106H25.7847C26.0571 5.77106 26.3061 5.80847 26.5341 5.88213C26.7621 5.95579 26.9597 6.07387 27.1281 6.23405C27.2964 6.39422 27.4274 6.60117 27.5209 6.85371C27.6144 7.10625 27.6624 7.41023 27.6624 7.76683V7.87088C27.6624 8.1433 27.7395 8.34673 27.8927 8.48353C28.0459 8.61915 28.2341 8.68813 28.4562 8.68813H28.8047C28.8432 8.68696 28.8795 8.69164 28.9122 8.70216ZM28.648 9.20607V8.79101C28.648 8.74191 28.6644 8.71151 28.6959 8.70216C28.7287 8.69281 28.7637 8.68696 28.8035 8.68696H30.072C30.1808 8.68696 30.2357 8.71385 30.2357 8.7688V9.18386C30.2357 9.23296 30.2194 9.26336 30.1878 9.27271C30.155 9.28207 30.1176 9.28791 30.0732 9.28791H28.8047C28.6994 9.28791 28.648 9.26102 28.648 9.20607ZM29.9165 9.20607V8.79101C29.9165 8.74191 29.9329 8.71151 29.9645 8.70216C29.996 8.69281 30.0323 8.68696 30.072 8.68696H31.3406C31.4493 8.68696 31.5043 8.71385 31.5043 8.7688V9.18386C31.5043 9.23296 31.4879 9.26336 31.4563 9.27271C31.4236 9.28207 31.3862 9.28791 31.3418 9.28791H30.0732C29.968 9.28791 29.9165 9.26102 29.9165 9.20607ZM31.1839 9.20607V8.79101C31.1839 8.74191 31.2003 8.71151 31.2318 8.70216C31.2646 8.69281 31.2997 8.68696 31.3394 8.68696H32.608C32.7167 8.68696 32.7716 8.71385 32.7716 8.7688V9.18386C32.7716 9.23296 32.7553 9.26336 32.7237 9.27271C32.691 9.28207 32.6536 9.28791 32.6091 9.28791H31.3406C31.2365 9.28791 31.1839 9.26102 31.1839 9.20607ZM32.4525 9.20607V8.79101C32.4525 8.74191 32.4688 8.71151 32.5004 8.70216C32.532 8.69281 32.5682 8.68696 32.608 8.68696H33.8765C33.9852 8.68696 34.0402 8.71385 34.0402 8.7688V9.18386C34.0402 9.23296 34.0238 9.26336 33.9923 9.27271C33.9595 9.28207 33.9221 9.28791 33.8777 9.28791H32.6091C32.5051 9.28791 32.4525 9.26102 32.4525 9.20607ZM36.7597 9.2353C36.6486 9.20023 36.5446 9.15346 36.4475 9.09383C36.3516 9.0342 36.2663 8.96639 36.1915 8.88923C36.1178 8.81206 36.0629 8.73022 36.0278 8.64019C35.9144 8.86234 35.7589 9.02602 35.5636 9.13008C35.3684 9.23413 35.1614 9.28557 34.944 9.28557H33.8753C33.7713 9.28557 33.7198 9.25869 33.7198 9.20373V8.78868C33.7198 8.73957 33.7362 8.70917 33.7678 8.69982C33.8005 8.69047 33.8356 8.68462 33.8753 8.68462H34.951C35.1193 8.68462 35.2655 8.6285 35.3882 8.51743C35.5122 8.40636 35.5741 8.21462 35.5741 7.9422V6.12414H36.1973V7.68265C36.1973 7.83113 36.2207 7.96675 36.2675 8.09068C36.3142 8.21462 36.3774 8.31984 36.4569 8.40636C36.5364 8.49288 36.6299 8.56069 36.7386 8.61097C36.8474 8.66007 36.9608 8.68462 37.08 8.68462H37.3992C37.439 8.68462 37.4752 8.6893 37.5068 8.69982C37.5395 8.70917 37.5547 8.73957 37.5547 8.78868V9.20373C37.5547 9.25869 37.5033 9.28557 37.3992 9.28557H37.08C36.9783 9.28791 36.8707 9.27038 36.7597 9.2353ZM36.2219 3.9834V4.85092H35.5917V3.9834H36.2219ZM37.4004 9.28791C37.2963 9.28791 37.2449 9.26102 37.2449 9.20607V8.79101C37.2449 8.74191 37.2612 8.71151 37.2928 8.70216C37.3256 8.69281 37.3606 8.68696 37.4004 8.68696H38.4094V6.3346H39.0396V7.80307H39.0688C39.2219 7.58093 39.3997 7.3506 39.6031 7.11326C39.8065 6.87592 40.0287 6.66079 40.2707 6.46788C40.5127 6.27497 40.7734 6.11713 41.0529 5.9932C41.3323 5.86927 41.6281 5.8073 41.9391 5.8073C42.5073 5.8073 42.9551 5.96163 43.2825 6.27146C43.6087 6.58012 43.7723 7.03493 43.7723 7.63237V9.28674H37.4004V9.28791ZM41.3288 6.54271C41.1335 6.63156 40.943 6.74848 40.7571 6.89112C40.5712 7.03493 40.3934 7.19277 40.2228 7.3658C40.0521 7.53884 39.8977 7.70954 39.7586 7.8779C39.6206 8.04626 39.499 8.20292 39.395 8.34907C39.2909 8.49522 39.2114 8.60746 39.1576 8.68696H43.1562V7.61133C43.1562 7.41374 43.1223 7.23953 43.0556 7.08871C42.989 6.93788 42.9001 6.81279 42.7891 6.71458C42.678 6.6152 42.5459 6.54037 42.3916 6.48776C42.2384 6.43631 42.077 6.40942 41.9099 6.40942C41.7181 6.40942 41.524 6.45385 41.3288 6.54271Z" fill="#A0968E"/>
<path d="M5.71354 15.1465H6.34372V18.3067H1.5513C1.33852 18.3067 1.13859 18.2775 0.950351 18.2179C0.762115 18.1582 0.598435 18.0612 0.456965 17.9244C0.315496 17.7888 0.204427 17.6111 0.122585 17.3936C0.0407435 17.1761 -0.000183105 16.9084 -0.000183105 16.5927V16.0958H0.578556V16.5997C0.578556 16.9809 0.661568 17.2603 0.827589 17.438C0.993611 17.6157 1.23446 17.7046 1.5513 17.7046H5.71354V15.1465ZM2.83505 13.6476V14.5151H2.20487V13.6476H2.83505ZM4.1036 13.6476V14.5151H3.47342V13.6476H4.1036ZM8.61425 17.721C8.64699 17.7303 8.66218 17.7607 8.66218 17.8098V18.2249C8.66218 18.2798 8.61074 18.3067 8.50668 18.3067H7.20891V13.0022H7.83909V17.7058H8.50668C8.54643 17.7058 8.58268 17.7116 8.61425 17.721ZM8.35119 18.226V17.8098C8.35119 17.7607 8.36755 17.7303 8.39912 17.721C8.43186 17.7116 8.46693 17.7058 8.50668 17.7058H9.77523C9.88396 17.7058 9.93891 17.7326 9.93891 17.7876V18.2027C9.93891 18.2518 9.92255 18.2822 9.89098 18.2915C9.85824 18.3009 9.82082 18.3067 9.77639 18.3067H8.50785C8.40263 18.3067 8.35119 18.2798 8.35119 18.226ZM9.61973 18.226V17.8098C9.61973 17.7607 9.6361 17.7303 9.66766 17.721C9.7004 17.7116 9.73548 17.7058 9.77523 17.7058H11.0438C11.1525 17.7058 11.2075 17.7326 11.2075 17.7876V18.2027C11.2075 18.2518 11.1911 18.2822 11.1595 18.2915C11.1268 18.3009 11.0894 18.3067 11.0449 18.3067H9.77639C9.67117 18.3067 9.61973 18.2798 9.61973 18.226ZM10.8871 18.226V17.8098C10.8871 17.7607 10.9035 17.7303 10.935 17.721C10.9678 17.7116 11.0029 17.7058 11.0426 17.7058H12.3112C12.4199 17.7058 12.4748 17.7326 12.4748 17.7876V18.2027C12.4748 18.2518 12.4585 18.2822 12.4269 18.2915C12.3942 18.3009 12.3567 18.3067 12.3123 18.3067H11.0438C10.9397 18.3067 10.8871 18.2798 10.8871 18.226ZM12.1557 18.226V17.8098C12.1557 17.7607 12.172 17.7303 12.2036 17.721C12.2363 17.7116 12.2714 17.7058 12.3112 17.7058H13.5797C13.6884 17.7058 13.7434 17.7326 13.7434 17.7876V18.2027C13.7434 18.2518 13.727 18.2822 13.6954 18.2915C13.6627 18.3009 13.6253 18.3067 13.5809 18.3067H12.3123C12.2083 18.3067 12.1557 18.2798 12.1557 18.226ZM13.4242 18.226V17.8098C13.4242 17.7607 13.4406 17.7303 13.4721 17.721C13.5049 17.7116 13.5399 17.7058 13.5797 17.7058H14.8482C14.957 17.7058 15.0119 17.7326 15.0119 17.7876V18.2027C15.0119 18.2518 14.9956 18.2822 14.964 18.2915C14.9313 18.3009 14.8938 18.3067 14.8494 18.3067H13.5809C13.4768 18.3067 13.4242 18.2798 13.4242 18.226ZM14.6927 18.226V17.8098C14.6927 17.7607 14.7091 17.7303 14.7407 17.721C14.7734 17.7116 14.8085 17.7058 14.8482 17.7058H16.1168C16.2255 17.7058 16.2805 17.7326 16.2805 17.7876V18.2027C16.2805 18.2518 16.2641 18.2822 16.2325 18.2915C16.1998 18.3009 16.1624 18.3067 16.118 18.3067H14.8482C14.7454 18.3067 14.6927 18.2798 14.6927 18.226ZM15.9613 18.226V17.8098C15.9613 17.7607 15.9777 17.7303 16.0092 17.721C16.042 17.7116 16.077 17.7058 16.1168 17.7058H17.3853C17.4941 17.7058 17.549 17.7326 17.549 17.7876V18.2027C17.549 18.2518 17.5327 18.2822 17.5011 18.2915C17.4683 18.3009 17.4309 18.3067 17.3865 18.3067H16.118C16.0127 18.3067 15.9613 18.2798 15.9613 18.226ZM17.2298 18.226V17.8098C17.2298 17.7607 17.2462 17.7303 17.2778 17.721C17.3105 17.7116 17.3456 17.7058 17.3853 17.7058H18.6539C18.7626 17.7058 18.8176 17.7326 18.8176 17.7876V18.2027C18.8176 18.2518 18.8012 18.2822 18.7696 18.2915C18.7369 18.3009 18.6995 18.3067 18.6551 18.3067H17.3853C17.2813 18.3067 17.2298 18.2798 17.2298 18.226ZM18.4984 18.226V17.8098C18.4984 17.7607 18.5148 17.7303 18.5463 17.721C18.5791 17.7116 18.6141 17.7058 18.6539 17.7058H19.9224C20.0312 17.7058 20.0861 17.7326 20.0861 17.7876V18.2027C20.0861 18.2518 20.0697 18.2822 20.0382 18.2915C20.0054 18.3009 19.968 18.3067 19.9236 18.3067H18.6551C18.5498 18.3067 18.4984 18.2798 18.4984 18.226ZM22.8044 18.2553C22.6934 18.2202 22.5893 18.1734 22.4923 18.1138C22.3964 18.0542 22.311 17.9864 22.2362 17.9092C22.1626 17.832 22.1076 17.7502 22.0725 17.6602C21.9591 17.8823 21.8036 18.046 21.6084 18.15C21.4131 18.2541 21.2062 18.3055 20.9887 18.3055H19.9224C19.8184 18.3055 19.7669 18.2787 19.7669 18.2237V17.8098C19.7669 17.7607 19.7833 17.7303 19.8149 17.721C19.8476 17.7116 19.8827 17.7058 19.9224 17.7058H20.9981C21.1664 17.7058 21.3126 17.6496 21.4353 17.5386C21.5593 17.4275 21.6212 17.2358 21.6212 16.9633V15.1453H22.2444V16.7038C22.2444 16.8523 22.2678 16.9879 22.3146 17.1118C22.3613 17.2358 22.4245 17.341 22.504 17.4275C22.5835 17.514 22.677 17.5818 22.7857 17.6321C22.8945 17.6812 23.0079 17.7058 23.1271 17.7058H23.4463C23.4861 17.7058 23.5223 17.7104 23.5539 17.721C23.5866 17.7303 23.6018 17.7607 23.6018 17.8098V18.2249C23.6018 18.2798 23.5504 18.3067 23.4463 18.3067H23.1271C23.0242 18.3067 22.9155 18.2903 22.8044 18.2553ZM21.6516 19.0117V19.8792H21.0215V19.0117H21.6516ZM22.9202 19.0117V19.8792H22.29V19.0117H22.9202ZM25.4117 17.6765C25.3275 17.597 25.2515 17.4883 25.1813 17.3503C25.1112 17.2124 25.0446 17.058 24.9767 16.8908C24.9101 16.7225 24.8446 16.5483 24.7803 16.3682C24.716 16.1882 24.6494 16.0128 24.5804 15.8456C24.5114 15.6784 24.4378 15.5229 24.3618 15.3815C24.2846 15.24 24.2028 15.1254 24.1127 15.0365V14.9033H26.9316C27.1397 14.9033 27.3221 14.9383 27.4811 15.0073C27.6389 15.0763 27.7699 15.171 27.8739 15.2891C27.978 15.4083 28.0552 15.5486 28.1078 15.7123C28.1592 15.876 28.1861 16.0514 28.1861 16.2396C28.1861 16.3437 28.1686 16.4571 28.1347 16.581C28.0996 16.7049 28.0505 16.8324 27.9862 16.9633C27.9219 17.0943 27.8471 17.2217 27.7594 17.3457C27.6728 17.4696 27.5781 17.5807 27.4741 17.68V17.7174H27.66H27.9418C28.0505 17.7174 28.1616 17.7163 28.2761 17.7139C28.3895 17.7116 28.4936 17.7104 28.5871 17.7104H28.8175H28.9145C28.9542 17.7104 28.9905 17.7151 29.0221 17.7256C29.0536 17.735 29.07 17.7654 29.07 17.8145V18.2295C29.07 18.2845 29.0186 18.3114 28.9145 18.3114H23.4463C23.3422 18.3114 23.2908 18.2845 23.2908 18.2295V17.8098C23.2908 17.7607 23.3072 17.7303 23.3387 17.721C23.3715 17.7116 23.4066 17.7058 23.4463 17.7058H25.4128V17.6765H25.4117ZM26.7878 17.5982C26.9293 17.4965 27.0544 17.369 27.1666 17.2159C27.2777 17.0627 27.3665 16.8955 27.4332 16.7155C27.4998 16.5354 27.5337 16.3659 27.5337 16.2069C27.5337 15.9941 27.4834 15.8234 27.3817 15.6948C27.28 15.5662 27.0941 15.5019 26.8217 15.5019H25.0411C25.096 15.551 25.151 15.6422 25.2082 15.7731C25.2655 15.9041 25.3252 16.0526 25.3895 16.2186C25.4538 16.3846 25.5216 16.5576 25.5929 16.7377C25.6642 16.9177 25.7402 17.0838 25.8197 17.2346C25.8992 17.3854 25.9834 17.5093 26.0723 17.6052C26.1611 17.7011 26.2558 17.7502 26.354 17.7502C26.5025 17.7514 26.6475 17.6999 26.7878 17.5982ZM30.7676 18.3184C30.5104 18.1769 30.3152 17.9735 30.1819 17.7058C30.1374 17.8051 30.0767 17.8917 30.0007 17.9653C29.9235 18.039 29.8405 18.1021 29.7481 18.1547C29.6569 18.2062 29.5599 18.2447 29.4593 18.2693C29.3588 18.2938 29.2606 18.3067 29.1659 18.3067H28.9133C28.8093 18.3067 28.7578 18.2798 28.7578 18.2249V17.8098C28.7578 17.7607 28.7742 17.7303 28.8058 17.721C28.8385 17.7116 28.8736 17.7058 28.9133 17.7058H29.1577C29.2711 17.7058 29.3763 17.6917 29.4734 17.6648C29.5704 17.6379 29.6534 17.5877 29.7259 17.5164C29.7972 17.445 29.8557 17.3492 29.9001 17.2311C29.9445 17.1118 29.9691 16.9587 29.9738 16.7716V16.712C29.9738 16.1285 30.1281 15.6784 30.4379 15.3616C30.7466 15.0447 31.171 14.8869 31.71 14.8869C32.249 14.8869 32.6734 15.0447 32.982 15.3616C33.2907 15.6784 33.4462 16.1285 33.4462 16.712V16.7716C33.4509 16.9598 33.4743 17.113 33.5163 17.2311C33.5584 17.3503 33.6157 17.445 33.687 17.5164C33.7584 17.5877 33.8437 17.6379 33.9431 17.6648C34.0425 17.6917 34.1489 17.7058 34.2623 17.7058H34.5066C34.5464 17.7058 34.5826 17.7104 34.6142 17.721C34.6469 17.7303 34.6621 17.7607 34.6621 17.8098V18.2249C34.6621 18.2798 34.6107 18.3067 34.5066 18.3067H34.2541C34.1547 18.3067 34.0565 18.2938 33.9571 18.2693C33.8577 18.2447 33.763 18.2062 33.6718 18.1547C33.5806 18.1033 33.4965 18.0401 33.4193 17.9653C33.3421 17.8917 33.2825 17.8051 33.2381 17.7058C33.1001 17.9723 32.9025 18.1769 32.6488 18.3184C32.3939 18.4599 32.0818 18.53 31.71 18.53C31.3382 18.53 31.0248 18.4599 30.7676 18.3184ZM32.4886 17.6169C32.6909 17.4193 32.7926 17.1177 32.7926 16.712C32.7926 16.3063 32.6921 16.0034 32.4922 15.8035C32.2922 15.6036 32.0315 15.503 31.71 15.503C31.3885 15.503 31.1277 15.6036 30.9278 15.8035C30.7279 16.0034 30.6273 16.3063 30.6273 16.712C30.6273 17.1177 30.729 17.4193 30.9313 17.6169C31.1336 17.8145 31.3943 17.9139 31.71 17.9139C32.0257 17.9139 32.2852 17.8157 32.4886 17.6169ZM38.5636 16.5343C38.5636 16.3367 38.5192 16.1578 38.4304 15.9999C38.3415 15.8421 38.2269 15.7077 38.0854 15.5989C37.944 15.4902 37.785 15.4072 37.6073 15.3499C37.4295 15.2926 37.2507 15.2645 37.073 15.2645C36.9151 15.2645 36.7573 15.2926 36.6018 15.3499C36.4463 15.4072 36.3025 15.482 36.1715 15.5767C36.0406 15.6702 35.9307 15.7813 35.8418 15.9064C35.753 16.0327 35.6957 16.1648 35.6711 16.3028H35.0632C35.083 16.0806 35.1473 15.8702 35.2561 15.6726C35.3648 15.475 35.5074 15.3008 35.6828 15.15C35.8582 14.9991 36.0651 14.8799 36.3025 14.7934C36.5398 14.7068 36.797 14.6636 37.0741 14.6636C37.3804 14.6636 37.6634 14.708 37.9241 14.7969C38.1848 14.8857 38.4093 15.0143 38.5987 15.1827C38.7893 15.3511 38.9378 15.5545 39.0442 15.7953C39.1506 16.035 39.2032 16.3039 39.2032 16.6009V16.9353C39.2032 17.1925 39.2803 17.3854 39.4335 17.514C39.5867 17.6426 39.7749 17.7069 39.997 17.7069H40.3455C40.3852 17.7069 40.4214 17.7116 40.453 17.7221C40.4857 17.7315 40.5009 17.7619 40.5009 17.811V18.226C40.5009 18.281 40.4495 18.3079 40.3455 18.3079H39.9889C39.9199 18.3079 39.8462 18.2962 39.7702 18.274C39.6931 18.2518 39.6194 18.219 39.5481 18.1781C39.4768 18.136 39.4136 18.0857 39.3587 18.0261C39.3037 17.9665 39.2628 17.8998 39.2324 17.8262H39.2032C39.1985 17.8811 39.1798 17.9525 39.1471 18.0413C39.1143 18.1302 39.064 18.219 38.9951 18.3079H34.5066C34.4026 18.3079 34.3511 18.281 34.3511 18.226V17.8098C34.3511 17.7607 34.3675 17.7303 34.3991 17.721C34.4318 17.7116 34.4669 17.7058 34.5066 17.7058H38.5648V16.5343H38.5636ZM37.3687 19.0117V19.8792H36.7386V19.0117H37.3687ZM41.5824 13.0022H42.2056V18.3067H40.3431C40.2391 18.3067 40.1876 18.2798 40.1876 18.2249V17.8098C40.1876 17.7607 40.204 17.7303 40.2355 17.721C40.2683 17.7116 40.3034 17.7058 40.3431 17.7058H41.5824V13.0022ZM43.0696 13.0022H43.6998V18.3067H43.0696V13.0022Z" fill="#A0968E"/>
</svg>
