<svg width="42" height="42" viewBox="0 0 42 42" fill="none" xmlns="http://www.w3.org/2000/svg">
<path d="M12.1685 13.7191L14.5043 14.887H16.8401" stroke="#7009B3" stroke-width="1.2"/>
<path d="M27.9352 14.303L27.1736 14.6838C26.9123 14.8145 26.6114 14.8424 26.3305 14.7621L22.9942 13.8089C22.7855 13.7492 22.5695 13.719 22.3525 13.7189H18.6741C18.2896 13.7189 17.911 13.8139 17.5719 13.9954C17.2329 14.1768 16.9439 14.4391 16.7306 14.7591L13.9203 18.9747H16.799C16.9912 18.9747 17.1805 18.9272 17.3501 18.8365C17.5196 18.7458 17.6641 18.6146 17.7707 18.4546L18.2452 17.7429C18.3519 17.5829 18.4964 17.4517 18.6659 17.3609C18.8354 17.2702 19.0247 17.2228 19.217 17.2228H19.9902C20.2207 17.2228 20.4462 17.2911 20.638 17.419L29.5709 23.3741C29.7361 23.4843 29.8771 23.6269 29.9853 23.7934C30.0935 23.9599 30.1665 24.1468 30.2001 24.3425C30.2336 24.5381 30.2268 24.7385 30.1802 24.9315C30.1336 25.1245 30.0481 25.3061 29.929 25.4649L29.8931 25.5128C29.6764 25.8017 29.3603 26.0001 29.0058 26.0695C28.6514 26.1389 28.2838 26.0746 27.9741 25.8887L23.2636 23.0623" stroke="#7009B3" stroke-width="1.2" stroke-linecap="round" stroke-linejoin="round"/>
<path d="M29.687 23.0624L32.0228 20.1426" stroke="#7009B3" stroke-width="1.2"/>
<path d="M10.4166 23.0623L8.08081 20.7265" stroke="#7009B3" stroke-width="1.2"/>
<path d="M13.9158 11.3903L6.91577 22.4784L2.8324 20.1442" stroke="#7009B3" stroke-width="1.2" stroke-linecap="round" stroke-linejoin="round"/>
<path d="M15.095 22.662L15.157 22.7029C15.689 23.0508 15.8353 23.7588 15.4851 24.2902L13.17 27.8036C12.8199 28.335 12.1098 28.4827 11.5779 28.1348L11.5158 28.0939C10.9839 27.7459 10.8375 27.038 11.1877 26.5066L13.5028 22.9931C13.8529 22.4617 14.5631 22.3139 15.095 22.662Z" stroke="#7009B3" stroke-width="1.2" stroke-linecap="round" stroke-linejoin="round"/>
<path d="M16.4339 24.9442C16.9753 25.2985 17.1259 26.0195 16.7716 26.5609L15.1728 29.0041C14.8185 29.5454 14.0974 29.6961 13.556 29.3419C13.0146 28.9875 12.864 28.2664 13.2183 27.725L14.8171 25.282C15.1714 24.7405 15.8925 24.5899 16.4339 24.9442Z" stroke="#7009B3" stroke-width="1.2" stroke-linecap="round" stroke-linejoin="round"/>
<path d="M17.9913 26.7487C18.5344 27.1004 18.6893 27.8212 18.3386 28.365L17.298 29.9786C16.9474 30.5224 16.2278 30.6771 15.6847 30.3253C15.1416 29.9736 14.9867 29.2528 15.3374 28.709L16.378 27.0954C16.7287 26.5517 17.4482 26.3969 17.9913 26.7487Z" stroke="#7009B3" stroke-width="1.2" stroke-linecap="round" stroke-linejoin="round"/>
<path d="M12.3395 22.6456C12.8825 22.9972 13.0375 23.7181 12.6868 24.2618L11.6462 25.8754C11.2955 26.4192 10.576 26.5738 10.0329 26.222C9.48979 25.8703 9.3349 25.1495 9.68557 24.6057L10.7262 22.9921C11.0768 22.4484 11.7964 22.2938 12.3395 22.6456Z" stroke="#7009B3" stroke-width="1.2" stroke-linecap="round" stroke-linejoin="round"/>
<path d="M26.7717 11.3903L33.7718 22.4784L37.8552 20.1442" stroke="#7009B3" stroke-width="1.2" stroke-linecap="round" stroke-linejoin="round"/>
<path d="M28.2289 26.3047L27.7275 26.9953C27.4669 27.3543 27.0798 27.6011 26.6444 27.6858C26.2089 27.7705 25.7575 27.6868 25.3814 27.4517L22.0957 25.3981" stroke="#7009B3" stroke-width="1.2" stroke-linecap="round" stroke-linejoin="round"/>
<path d="M26.493 28.0341L25.9759 28.7465C25.712 29.1101 25.3231 29.3634 24.8838 29.4579C24.4445 29.5524 23.9858 29.4814 23.5957 29.2584L20.9277 27.7339" stroke="#7009B3" stroke-width="1.2" stroke-linecap="round" stroke-linejoin="round"/>
<path d="M23.7394 29.5125L23.2274 30.2951C23.0477 30.5697 22.7795 30.7745 22.4672 30.8756C22.155 30.9767 21.8176 30.9681 21.511 30.8509L18.0079 29.5125" stroke="#7009B3" stroke-width="1.2" stroke-linejoin="round"/>
<path d="M6.32892 18.9746C6.32892 19.1295 6.2674 19.278 6.15788 19.3875C6.04837 19.497 5.89984 19.5586 5.74497 19.5586C5.59009 19.5586 5.44156 19.497 5.33205 19.3875C5.22253 19.278 5.16101 19.1295 5.16101 18.9746C5.16101 18.8198 5.22253 18.6713 5.33205 18.5618C5.44156 18.4523 5.59009 18.3907 5.74497 18.3907C5.89984 18.3907 6.04837 18.4523 6.15788 18.5618C6.2674 18.6713 6.32892 18.8198 6.32892 18.9746Z" fill="#7009B3"/>
<path d="M35.5267 18.9746C35.5267 19.1295 35.4652 19.278 35.3556 19.3875C35.2461 19.497 35.0976 19.5586 34.9427 19.5586C34.7878 19.5586 34.6393 19.497 34.5298 19.3875C34.4203 19.278 34.3588 19.1295 34.3588 18.9746C34.3588 18.8198 34.4203 18.6713 34.5298 18.5618C34.6393 18.4523 34.7878 18.3907 34.9427 18.3907C35.0976 18.3907 35.2461 18.4523 35.3556 18.5618C35.4652 18.6713 35.5267 18.8198 35.5267 18.9746Z" fill="#7009B3"/>
</svg>
