<svg width="71" height="60" viewBox="0 0 71 60" fill="none" xmlns="http://www.w3.org/2000/svg">
<g clip-path="url(#clip0_226_5725)">
<path d="M32.0146 32.3055C31.1866 32.3055 30.5146 32.9775 30.5146 33.8055C30.5146 34.6335 31.1866 35.3055 32.0146 35.3055C32.8426 35.3055 33.5146 34.6335 33.5146 33.8055C33.5146 32.9775 32.8426 32.3055 32.0146 32.3055Z" fill="#7009B3"/>
<path d="M32.0146 30.8055C33.6691 30.8055 35.0146 32.151 35.0146 33.8055C35.0146 35.46 33.6691 36.8055 32.0146 36.8055C30.3601 36.8055 29.0146 35.46 29.0146 33.8055C29.0146 32.151 30.3601 30.8055 32.0146 30.8055ZM32.0146 29.3055C29.5291 29.3055 27.5146 31.3208 27.5146 33.8055C27.5146 36.291 29.5291 38.3055 32.0146 38.3055C34.4994 38.3055 36.5146 36.291 36.5146 33.8055C36.5146 31.32 34.4994 29.3055 32.0146 29.3055Z" fill="#7009B3"/>
<path d="M32.0146 26.3055C36.1501 26.3055 39.5146 29.67 39.5146 33.8055C39.5146 37.941 36.1501 41.3055 32.0146 41.3055C27.8791 41.3055 24.5146 37.941 24.5146 33.8055C24.5146 29.67 27.8791 26.3055 32.0146 26.3055ZM32.0146 24.8055C27.0444 24.8055 23.0146 28.8353 23.0146 33.8055C23.0146 38.7758 27.0444 42.8055 32.0146 42.8055C36.9849 42.8055 41.0146 38.7758 41.0146 33.8055C41.0146 28.8353 36.9849 24.8055 32.0146 24.8055Z" fill="#7009B3"/>
<path d="M32.0146 21.8055C38.6311 21.8055 44.0146 27.189 44.0146 33.8055C44.0146 40.422 38.6311 45.8055 32.0146 45.8055C25.3981 45.8055 20.0146 40.422 20.0146 33.8055C20.0146 27.189 25.3981 21.8055 32.0146 21.8055ZM32.0146 20.3055C24.5596 20.3055 18.5146 26.3505 18.5146 33.8055C18.5146 41.2605 24.5596 47.3055 32.0146 47.3055C39.4696 47.3055 45.5146 41.2605 45.5146 33.8055C45.5146 26.3505 39.4696 20.3055 32.0146 20.3055Z" fill="#7009B3"/>
<path d="M49.0446 17.8359L47.984 16.7753L31.484 33.2753L32.5446 34.3359L49.0446 17.8359Z" fill="#7009B3"/>
<path d="M47.7647 14.9888V16.5555V18.0555H49.2647H50.8277C49.8452 20.2238 48.2424 22.7355 46.5827 22.7355C45.9084 22.7355 45.1487 22.3178 44.3252 21.495C42.8439 20.0138 43.0629 19.1213 43.1349 18.828C43.4994 17.3408 45.7149 15.915 47.7647 14.9888ZM49.2647 12.8055C49.2647 12.8055 37.2647 16.5555 43.2647 22.5555C44.4647 23.7555 45.5747 24.2355 46.5827 24.2355C50.6147 24.2355 53.0147 16.5555 53.0147 16.5555H49.2647V12.8055Z" fill="#7009B3"/>
<path d="M46.2646 15.0555H44.7646V20.3055H46.2646V15.0555Z" fill="#7009B3"/>
<path d="M19.2647 47.3055C19.0727 47.3055 18.8807 47.232 18.7344 47.0858C18.4412 46.7925 18.4412 46.3185 18.7344 46.0253L21.9384 42.8213C22.2317 42.528 22.7057 42.528 22.9989 42.8213C23.2922 43.1145 23.2922 43.5885 22.9989 43.8818L19.7949 47.0858C19.6487 47.232 19.4567 47.3055 19.2647 47.3055Z" fill="#7009B3"/>
<path d="M44.7647 47.3055C44.5727 47.3055 44.3807 47.232 44.2344 47.0858L41.0297 43.881C40.7364 43.5878 40.7364 43.1138 41.0297 42.8205C41.3229 42.5273 41.7969 42.5273 42.0902 42.8205L45.2949 46.0253C45.5882 46.3185 45.5882 46.7925 45.2949 47.0858C45.1487 47.232 44.9567 47.3055 44.7647 47.3055Z" fill="#7009B3"/>
</g>
<g opacity="0.1">
<path d="M0.444946 0.668213H70.5113V50.1071C70.5113 55.0716 66.4868 59.096 61.5224 59.096H9.43383C4.4694 59.096 0.444946 55.0716 0.444946 50.1071V0.668213Z" fill="#7009B3"/>
</g>
<defs>
<clipPath id="clip0_226_5725">
<rect width="36" height="36" fill="white" transform="translate(17.0146 11.3055)"/>
</clipPath>
</defs>
</svg>
