<svg width="71" height="59" viewBox="0 0 71 59" fill="none" xmlns="http://www.w3.org/2000/svg">
<g opacity="0.1">
<path d="M0.0103149 0.316833H70.0767V49.7558C70.0767 54.7202 66.0522 58.7446 61.0878 58.7446H8.9992C4.03477 58.7446 0.0103149 54.7202 0.0103149 49.7557V0.316833Z" fill="#7009B3"/>
</g>
<g clip-path="url(#clip0_227_6069)">
<path d="M23.1638 18.9839L26.5388 20.6714H29.9138" stroke="#7009B3" stroke-width="1.6"/>
<path d="M45.9451 19.8276L44.8447 20.3778C44.467 20.5666 44.0324 20.6069 43.6264 20.4909L38.8058 19.1136C38.5043 19.0274 38.1922 18.9837 37.8786 18.9836H32.5638C32.0082 18.9836 31.4612 19.1209 30.9713 19.3831C30.4814 19.6452 30.0638 20.0243 29.7556 20.4866L25.6951 26.5776H29.8544C30.1323 26.5776 30.4058 26.5091 30.6507 26.378C30.8956 26.2469 31.1044 26.0573 31.2585 25.8261L31.9441 24.7978C32.0982 24.5667 32.307 24.377 32.5519 24.246C32.7969 24.1149 33.0704 24.0463 33.3482 24.0463H34.4654C34.7985 24.0463 35.1242 24.145 35.4014 24.3298L48.3085 32.9344C48.5472 33.0935 48.7509 33.2996 48.9072 33.5402C49.0635 33.7807 49.1691 34.0507 49.2176 34.3335C49.266 34.6162 49.2562 34.9058 49.1889 35.1846C49.1216 35.4635 48.9981 35.7258 48.8259 35.9553L48.774 36.0245C48.4609 36.442 48.0042 36.7285 47.492 36.8289C46.9799 36.9292 46.4488 36.8362 46.0013 36.5677L39.1951 32.4838" stroke="#7009B3" stroke-width="1.6" stroke-linecap="round" stroke-linejoin="round"/>
<path d="M48.4763 32.4839L51.8513 28.2651" stroke="#7009B3" stroke-width="1.6"/>
<path d="M20.6326 32.4839L17.2576 29.1089" stroke="#7009B3" stroke-width="1.6"/>
<path d="M25.6886 15.619L15.5743 31.6401L9.67426 28.2674" stroke="#7009B3" stroke-width="1.6" stroke-linecap="round" stroke-linejoin="round"/>
<path d="M27.3923 31.9053L27.482 31.9644C28.2506 32.4671 28.462 33.4901 27.9561 34.258L24.611 39.3345C24.1051 40.1023 23.0791 40.3157 22.3105 39.813L22.2208 39.7539C21.4523 39.251 21.2408 38.2281 21.7468 37.4603L25.0918 32.3838C25.5977 31.616 26.6238 31.4024 27.3923 31.9053Z" stroke="#7009B3" stroke-width="1.6" stroke-linecap="round" stroke-linejoin="round"/>
<path d="M29.3268 35.2029C30.1091 35.7148 30.3267 36.7566 29.8148 37.5389L27.5047 41.069C26.9928 41.8512 25.9509 42.0688 25.1687 41.557C24.3864 41.045 24.1688 40.0032 24.6807 39.2208L26.9907 35.6909C27.5027 34.9086 28.5445 34.6909 29.3268 35.2029Z" stroke="#7009B3" stroke-width="1.6" stroke-linecap="round" stroke-linejoin="round"/>
<path d="M31.5772 37.8102C32.3619 38.3183 32.5857 39.3599 32.079 40.1456L30.5755 42.477C30.0688 43.2627 29.0292 43.4863 28.2445 42.978C27.4597 42.4699 27.2359 41.4283 27.7426 40.6426L29.2462 38.3112C29.7529 37.5255 30.7925 37.302 31.5772 37.8102Z" stroke="#7009B3" stroke-width="1.6" stroke-linecap="round" stroke-linejoin="round"/>
<path d="M23.411 31.8816C24.1957 32.3897 24.4195 33.4312 23.9128 34.2169L22.4093 36.5484C21.9026 37.3341 20.8629 37.5574 20.0782 37.0491C19.2935 36.541 19.0697 35.4995 19.5764 34.7138L21.0799 32.3824C21.5866 31.5967 22.6263 31.3733 23.411 31.8816Z" stroke="#7009B3" stroke-width="1.6" stroke-linecap="round" stroke-linejoin="round"/>
<path d="M44.264 15.619L54.3783 31.6401L60.2784 28.2674" stroke="#7009B3" stroke-width="1.6" stroke-linecap="round" stroke-linejoin="round"/>
<path d="M46.3693 37.1688L45.6449 38.1666C45.2684 38.6853 44.7091 39.0419 44.0799 39.1643C43.4507 39.2867 42.7985 39.1657 42.255 38.826L37.5076 35.8589" stroke="#7009B3" stroke-width="1.6" stroke-linecap="round" stroke-linejoin="round"/>
<path d="M43.8613 39.6675L43.1142 40.6969C42.7328 41.2223 42.1708 41.5882 41.5361 41.7248C40.9014 41.8613 40.2386 41.7587 39.6749 41.4366L35.8201 39.2339" stroke="#7009B3" stroke-width="1.6" stroke-linecap="round" stroke-linejoin="round"/>
<path d="M39.8827 41.8036L39.1429 42.9343C38.8833 43.3312 38.4957 43.627 38.0445 43.7732C37.5934 43.9193 37.1058 43.9068 36.6628 43.7375L31.6013 41.8036" stroke="#7009B3" stroke-width="1.6" stroke-linejoin="round"/>
<path d="M14.7263 26.5776C14.7263 26.8014 14.6374 27.016 14.4792 27.1742C14.321 27.3324 14.1063 27.4214 13.8826 27.4214C13.6588 27.4214 13.4442 27.3324 13.2859 27.1742C13.1277 27.016 13.0388 26.8014 13.0388 26.5776C13.0388 26.3539 13.1277 26.1393 13.2859 25.9811C13.4442 25.8228 13.6588 25.7339 13.8826 25.7339C14.1063 25.7339 14.321 25.8228 14.4792 25.9811C14.6374 26.1393 14.7263 26.3539 14.7263 26.5776Z" fill="#7009B3"/>
<path d="M56.9138 26.5776C56.9138 26.8014 56.8249 27.016 56.6667 27.1742C56.5085 27.3324 56.2938 27.4214 56.0701 27.4214C55.8463 27.4214 55.6317 27.3324 55.4734 27.1742C55.3152 27.016 55.2263 26.8014 55.2263 26.5776C55.2263 26.3539 55.3152 26.1393 55.4734 25.9811C55.6317 25.8228 55.8463 25.7339 56.0701 25.7339C56.2938 25.7339 56.5085 25.8228 56.6667 25.9811C56.8249 26.1393 56.9138 26.3539 56.9138 26.5776Z" fill="#7009B3"/>
</g>
<defs>
<clipPath id="clip0_227_6069">
<rect width="54" height="54" fill="white" transform="translate(8.82007 2.53076)"/>
</clipPath>
</defs>
</svg>
