<svg width="71" height="60" viewBox="0 0 71 60" fill="none" xmlns="http://www.w3.org/2000/svg">
<path fill-rule="evenodd" clip-rule="evenodd" d="M33.7143 49.4286H38.2857C38.9166 49.4286 39.4286 48.9166 39.4286 48.2857C39.4286 47.6549 38.9166 47.1429 38.2857 47.1429H33.7143C33.0834 47.1429 32.5714 47.6549 32.5714 48.2857C32.5714 48.9166 33.0834 49.4286 33.7143 49.4286Z" fill="white"/>
<path fill-rule="evenodd" clip-rule="evenodd" d="M32.5714 46H39.4286C40.0594 46 40.5714 45.488 40.5714 44.8572C40.5714 44.2263 40.0594 43.7143 39.4286 43.7143H32.5714C31.9406 43.7143 31.4286 44.2263 31.4286 44.8572C31.4286 45.488 31.9406 46 32.5714 46Z" fill="white"/>
<path fill-rule="evenodd" clip-rule="evenodd" d="M32.5223 42.5668L32.5714 42.5714H39.4286H39.4789C40.1097 42.5691 40.6194 42.0583 40.6194 41.4286C40.6194 39.5897 41.4297 37.8457 42.8343 36.6606C45.1257 34.7954 46.128 31.9348 46.128 28.6994C46.128 23.1097 41.5897 18.5714 36 18.5714C30.4103 18.5714 25.872 23.1097 25.872 28.6994C25.872 31.9451 26.8823 34.8126 29.208 36.6331C30.6114 37.8183 31.4286 39.5748 31.4286 41.4274C31.4286 42.3668 32.304 42.5383 32.5223 42.5668ZM38.4114 40.2857H33.6377C33.3554 38.1828 32.2994 36.2446 30.6537 34.8628C30.6434 34.8548 30.6331 34.8457 30.6229 34.8377C28.832 33.44 28.1577 31.1943 28.1577 28.6994C28.1577 24.3714 31.672 20.8571 36 20.8571C40.328 20.8571 43.8423 24.3714 43.8423 28.6994C43.8423 31.2011 43.1611 33.4526 41.392 34.8868C41.3874 34.8903 41.3817 34.8948 41.3771 34.8994C39.7429 36.272 38.6926 38.1977 38.4114 40.2857Z" fill="white"/>
<path fill-rule="evenodd" clip-rule="evenodd" d="M34.8583 34.5714L34.8571 36.8571C34.8571 37.488 35.3691 38 36 38C36.6309 38 37.1429 37.488 37.1429 36.8571V34.6274C37.144 34.6091 37.144 34.5897 37.144 34.5714C37.144 34.112 37.4171 33.696 37.8377 33.512C39.3326 32.8708 40.5497 31.8217 40.5714 29.8697C40.5989 27.3428 38.5269 25.2857 36 25.2857C33.4766 25.2857 31.4286 27.3337 31.4286 29.8571C31.4286 30.488 31.9406 31 32.5714 31C33.2023 31 33.7143 30.488 33.7143 29.8571C33.7143 28.5954 34.7383 27.5714 36 27.5714C37.2583 27.5714 38.2994 28.5863 38.2857 29.8446C38.2766 30.7337 37.6126 31.1223 36.9314 31.4137C36.9291 31.4148 36.9269 31.416 36.9246 31.4171C35.6697 31.9634 34.8583 33.2023 34.8583 34.5714Z" fill="white"/>
<path fill-rule="evenodd" clip-rule="evenodd" d="M37.1429 16.2857V14C37.1429 13.3691 36.6309 12.8571 36 12.8571C35.3691 12.8571 34.8571 13.3691 34.8571 14V16.2857C34.8571 16.9165 35.3691 17.4285 36 17.4285C36.6309 17.4285 37.1429 16.9165 37.1429 16.2857Z" fill="white"/>
<path fill-rule="evenodd" clip-rule="evenodd" d="M46.9097 21.2777L48.5257 19.6617C48.9714 19.2148 48.9714 18.4914 48.5257 18.0446C48.08 17.5988 47.3554 17.5988 46.9097 18.0446L45.2926 19.6617C44.8469 20.1074 44.8469 20.832 45.2926 21.2777C45.7394 21.7234 46.4629 21.7234 46.9097 21.2777Z" fill="white"/>
<path fill-rule="evenodd" clip-rule="evenodd" d="M50.2857 31.7131H52.5714C53.2023 31.7131 53.7143 31.2011 53.7143 30.5703C53.7143 29.9394 53.2023 29.4274 52.5714 29.4274H50.2857C49.6549 29.4274 49.1429 29.9394 49.1429 30.5703C49.1429 31.2011 49.6549 31.7131 50.2857 31.7131Z" fill="white"/>
<path fill-rule="evenodd" clip-rule="evenodd" d="M45.2949 41.48L46.9109 43.096C47.3577 43.5417 48.0811 43.5417 48.5269 43.096C48.9737 42.6503 48.9737 41.9257 48.5269 41.48L46.9109 39.864C46.4651 39.4172 45.7406 39.4172 45.2949 39.864C44.8491 40.3097 44.8491 41.0343 45.2949 41.48Z" fill="white"/>
<path fill-rule="evenodd" clip-rule="evenodd" d="M25.0926 39.8674L23.4766 41.4834C23.0309 41.9303 23.0309 42.6537 23.4766 43.0994C23.9223 43.5463 24.6469 43.5463 25.0926 43.0994L26.7086 41.4834C27.1554 41.0366 27.1543 40.3131 26.7086 39.8674C26.2629 39.4206 25.5383 39.4206 25.0926 39.8674Z" fill="white"/>
<path fill-rule="evenodd" clip-rule="evenodd" d="M21.7143 29.432L19.4286 29.4331C18.7977 29.4331 18.2857 29.9451 18.2857 30.576C18.2857 31.2069 18.7977 31.7189 19.4286 31.7189L21.7143 31.7177C22.3451 31.7177 22.8571 31.2057 22.8571 30.5749C22.8571 29.944 22.3451 29.432 21.7143 29.432Z" fill="white"/>
<path fill-rule="evenodd" clip-rule="evenodd" d="M26.7029 19.6651L25.0869 18.0491C24.64 17.6034 23.9166 17.6034 23.4709 18.0491C23.024 18.4948 23.0251 19.2194 23.4709 19.6651L25.088 21.2811C25.5337 21.7268 26.2583 21.7268 26.704 21.2811C27.1497 20.8343 27.1497 20.1108 26.7029 19.6651Z" fill="white"/>
<g opacity="0.2">
<path d="M0.444824 0.668274H70.5112V50.1072C70.5112 55.0716 66.4867 59.0961 61.5223 59.0961H9.43371C4.46928 59.0961 0.444824 55.0716 0.444824 50.1072V0.668274Z" fill="white"/>
</g>
</svg>
