<svg width="72" height="60" viewBox="0 0 72 60" fill="none" xmlns="http://www.w3.org/2000/svg">
<g clip-path="url(#clip0_226_5703)">
<path d="M47.3187 24.118V19.868C47.3187 14.5864 43.1536 10.3055 38.0147 10.3055C32.8757 10.3055 28.7106 14.5864 28.7106 19.868V24.118C26.9976 24.118 25.6093 25.545 25.6093 27.3055V30.493V31.5555V33.6805V34.743C25.6093 40.0247 29.7744 44.3055 34.9133 44.3055H41.116C46.2549 44.3055 50.4201 40.0247 50.4201 34.743V33.6805V31.5555V30.493V27.3055C50.4201 25.5439 49.0307 24.118 47.3187 24.118ZM30.7782 19.868C30.7782 15.7604 34.0181 12.4305 38.0147 12.4305C42.0113 12.4305 45.2511 15.7604 45.2511 19.868V24.118H43.1836V19.8702C43.1836 16.9355 40.87 14.5577 38.0147 14.5577C35.1593 14.5577 32.8457 16.9355 32.8457 19.8702V24.118H30.7782V19.868ZM42.1498 19.868V19.8712V24.118H33.8795V19.8702V19.868C33.8795 17.521 35.731 15.618 38.0147 15.618C40.2983 15.618 42.1498 17.521 42.1498 19.868ZM48.3525 30.493V31.5555V33.6805V34.743C48.3525 38.8432 45.1054 42.1805 41.116 42.1805H34.9133C30.9239 42.1805 27.6768 38.8432 27.6768 34.743V33.6805V31.5555V30.493V27.3055C27.6768 26.719 28.14 26.243 28.7106 26.243C29.4001 26.243 30.0886 26.243 30.7782 26.243H45.2511C45.9396 26.243 46.6281 26.243 47.3187 26.243C47.8883 26.243 48.3525 26.719 48.3525 27.3055V30.493Z" fill="#7009B3"/>
<path d="M38.0147 30.493C36.8734 30.493 35.9471 31.444 35.9471 32.618C35.9471 33.263 36.2913 34.488 36.6366 35.457C36.9178 36.2454 37.2714 36.8659 38.0147 36.8659C38.8231 36.8659 39.1115 36.2518 39.3937 35.4677C39.7431 34.4965 40.0822 33.2651 40.0822 32.618C40.0822 31.444 39.1559 30.493 38.0147 30.493Z" fill="#7009B3"/>
</g>
<g opacity="0.1">
<path d="M0.582764 0.759888H71.65V50.1988C71.65 55.1632 67.6256 59.1877 62.6612 59.1877H9.57164C4.60722 59.1877 0.582764 55.1632 0.582764 50.1988V0.759888Z" fill="#7009B3"/>
</g>
<defs>
<clipPath id="clip0_226_5703">
<rect width="33.0811" height="34" fill="white" transform="translate(21.4741 10.3055)"/>
</clipPath>
</defs>
</svg>
